<svg width="20" height="20" viewBox="0 0 20 20" fill="none" xmlns="http://www.w3.org/2000/svg">
<path d="M10 1C12.2512 3.46451 13.5305 6.66283 13.6 10C13.5305 13.3372 12.2512 16.5354 10 19M10 1C7.74885 3.46451 6.46952 6.66283 6.4 10C6.46952 13.3372 7.74885 16.5354 10 19M10 1C5.02943 1 1 5.02943 1 10C1 14.9705 5.02943 19 10 19M10 1C14.9705 1 19 5.02943 19 10C19 14.9705 14.9705 19 10 19M1.45002 7.3H18.55M1.45 12.7H18.55" stroke="#141414" stroke-opacity="0.7" stroke-width="1.5" stroke-linecap="round" stroke-linejoin="round"/>
</svg>
