<svg width="48" height="61" viewBox="0 0 48 61" fill="none" xmlns="http://www.w3.org/2000/svg">
<mask id="path-1-outside-1_277_14764" maskUnits="userSpaceOnUse" x="-2" y="-2" width="52" height="65" fill="black">
<rect fill="white" x="-2" y="-2" width="52" height="65"/>
<path d="M24.72 60.52C13.84 60.52 3.6 55.72 0.56 44.52L15.28 40.84C16.16 44.2 19.28 47.32 23.84 47.32C27.04 47.32 30.72 45.8 30.72 41.48C30.72 36.68 25.92 35.4 20.56 35.4H16.24V24.2H21.04C25.68 24.2 29.6 23.08 29.6 18.6C29.6 15.16 26.64 13.56 23.6 13.56C20.24 13.56 17.44 15.72 16.72 19.32L2.08 16.04C5.2 5.4 15.12 0.839995 24.8 0.839995C34.8 0.839995 45.76 5.8 45.76 17.08C45.76 23.4 41.84 27.72 36.64 29.08V29.4C42.8 31 47.04 36.36 47.04 42.28C47.04 55 35.52 60.52 24.72 60.52Z"/>
</mask>
<path d="M0.56 44.52L0.0749288 42.5797L-1.90468 43.0746L-1.37016 45.0439L0.56 44.52ZM15.28 40.84L17.2147 40.3333L16.7137 38.42L14.7949 38.8997L15.28 40.84ZM16.24 35.4H14.24V37.4H16.24V35.4ZM16.24 24.2V22.2H14.24V24.2H16.24ZM16.72 19.32L16.2828 21.2716L18.2798 21.719L18.6812 19.7122L16.72 19.32ZM2.08 16.04L0.16081 15.4772L-0.439682 17.5251L1.64275 17.9916L2.08 16.04ZM36.64 29.08L36.1339 27.1451L34.64 27.5358V29.08H36.64ZM36.64 29.4H34.64V30.9469L36.1372 31.3358L36.64 29.4ZM24.72 58.52C14.3514 58.52 5.2048 53.9974 2.49016 43.9961L-1.37016 45.0439C1.9952 57.4426 13.3286 62.52 24.72 62.52V58.52ZM1.04507 46.4603L15.7651 42.7803L14.7949 38.8997L0.0749288 42.5797L1.04507 46.4603ZM13.3453 41.3467C14.429 45.4846 18.2694 49.32 23.84 49.32V45.32C20.2906 45.32 17.891 42.9154 17.2147 40.3333L13.3453 41.3467ZM23.84 49.32C25.7107 49.32 27.8702 48.8829 29.6236 47.6608C31.471 46.3732 32.72 44.3052 32.72 41.48H28.72C28.72 42.9748 28.129 43.8268 27.3364 44.3792C26.4498 44.9971 25.1693 45.32 23.84 45.32V49.32ZM32.72 41.48C32.72 39.93 32.3267 38.5519 31.5467 37.3902C30.7753 36.2412 29.7059 35.4225 28.5329 34.8454C26.2457 33.7202 23.3329 33.4 20.56 33.4V37.4C23.1471 37.4 25.3143 37.7198 26.7671 38.4346C27.4641 38.7775 27.9297 39.1788 28.2258 39.6198C28.5133 40.0481 28.72 40.63 28.72 41.48H32.72ZM20.56 33.4H16.24V37.4H20.56V33.4ZM18.24 35.4V24.2H14.24V35.4H18.24ZM16.24 26.2H21.04V22.2H16.24V26.2ZM21.04 26.2C23.4469 26.2 25.9989 25.9229 28.0082 24.8409C29.0489 24.2805 29.9754 23.4874 30.631 22.3923C31.2867 21.297 31.6 20.019 31.6 18.6H27.6C27.6 19.421 27.4233 19.963 27.199 20.3377C26.9746 20.7126 26.6311 21.0395 26.1118 21.3191C25.0011 21.9171 23.2731 22.2 21.04 22.2V26.2ZM31.6 18.6C31.6 16.2247 30.5421 14.3772 28.9308 13.1831C27.3864 12.0386 25.4374 11.56 23.6 11.56V15.56C24.8026 15.56 25.8536 15.8814 26.5492 16.3969C27.1779 16.8628 27.6 17.5353 27.6 18.6H31.6ZM23.6 11.56C19.29 11.56 15.6665 14.3896 14.7588 18.9278L18.6812 19.7122C19.2135 17.0504 21.19 15.56 23.6 15.56V11.56ZM17.1572 17.3684L2.51725 14.0884L1.64275 17.9916L16.2828 21.2716L17.1572 17.3684ZM3.99919 16.6028C6.78333 7.10815 15.659 2.84 24.8 2.84V-1.16C14.581 -1.16 3.61667 3.69185 0.16081 15.4772L3.99919 16.6028ZM24.8 2.84C29.511 2.84 34.3389 4.01531 37.9235 6.39602C41.4362 8.72901 43.76 12.2014 43.76 17.08H47.76C47.76 10.6786 44.6038 6.03099 40.1365 3.06397C35.7411 0.144686 30.089 -1.16 24.8 -1.16V2.84ZM43.76 17.08C43.76 22.4348 40.5087 26.0009 36.1339 27.1451L37.1461 31.0149C43.1713 29.4391 47.76 24.3651 47.76 17.08H43.76ZM34.64 29.08V29.4H38.64V29.08H34.64ZM36.1372 31.3358C41.475 32.7222 45.04 37.3309 45.04 42.28H49.04C49.04 35.3891 44.125 29.2778 37.1428 27.4642L36.1372 31.3358ZM45.04 42.28C45.04 47.9383 42.5198 51.9079 38.7807 54.5332C34.9674 57.2107 29.8186 58.52 24.72 58.52V62.52C30.4214 62.52 36.4326 61.0693 41.0793 57.8068C45.8002 54.4921 49.04 49.3417 49.04 42.28H45.04Z" fill="white" mask="url(#path-1-outside-1_277_14764)"/>
</svg>
