<svg width="18" height="20" viewBox="0 0 18 20" fill="none" xmlns="http://www.w3.org/2000/svg">
<path d="M3.24 1.576L1.85333 3.448C1.57868 3.81878 1.44135 4.00417 1.44454 4.15935C1.44732 4.2944 1.50985 4.42103 1.61489 4.50431C1.73559 4.6 1.96447 4.6 2.42222 4.6H15.5778C16.0356 4.6 16.2644 4.6 16.3852 4.50431C16.4901 4.42103 16.5527 4.2944 16.5555 4.15935C16.5587 4.00417 16.4213 3.81878 16.1467 3.448L14.76 1.576M3.24 1.576C3.39644 1.3648 3.47467 1.2592 3.5738 1.18304C3.6616 1.11558 3.76103 1.06525 3.86701 1.03461C3.98667 1 4.11704 1 4.37778 1H13.6222C13.8829 1 14.0133 1 14.133 1.03461C14.2389 1.06525 14.3384 1.11558 14.4262 1.18304C14.5253 1.2592 14.6036 1.3648 14.76 1.576M3.24 1.576L1.56889 3.83199C1.35781 4.11695 1.25228 4.25943 1.17733 4.41633C1.11084 4.55556 1.06233 4.70288 1.03302 4.85466C1 5.02571 1 5.20381 1 5.55999V16.12C1 17.1281 1 17.6322 1.19377 18.0172C1.3642 18.3559 1.63617 18.6313 1.97068 18.8038C2.35097 19 2.84879 19 3.84444 19H14.1556C15.1512 19 15.6491 19 16.0293 18.8038C16.3638 18.6313 16.6358 18.3559 16.8062 18.0172C17 17.6322 17 17.1281 17 16.12V5.56C17 5.20381 17 5.02571 16.9669 4.85466C16.9377 4.70288 16.8892 4.55556 16.8227 4.41633C16.7477 4.25943 16.6422 4.11695 16.4311 3.832L14.76 1.576M12.5556 8.2C12.5556 9.15481 12.181 10.0705 11.5141 10.7456C10.8474 11.4207 9.94302 11.8 9 11.8C8.05698 11.8 7.15264 11.4207 6.48584 10.7456C5.81905 10.0705 5.44444 9.15481 5.44444 8.2" stroke="#141414" stroke-width="1.5" stroke-linecap="round" stroke-linejoin="round"/>
</svg>
