<svg width="18" height="18" viewBox="0 0 18 18" fill="none" xmlns="http://www.w3.org/2000/svg">
<path d="M1.5 5.25L7.62367 9.53655C8.11957 9.88372 8.36753 10.0573 8.63723 10.1245C8.87543 10.1839 9.12457 10.1839 9.36277 10.1245C9.63247 10.0573 9.88043 9.88372 10.3763 9.53655L16.5 5.25M5.1 15H12.9C14.1602 15 14.7901 15 15.2715 14.7548C15.6949 14.5391 16.0391 14.1949 16.2548 13.7715C16.5 13.2901 16.5 12.6601 16.5 11.4V6.6C16.5 5.33988 16.5 4.70982 16.2548 4.22852C16.0391 3.80516 15.6949 3.46095 15.2715 3.24524C14.7901 3 14.1602 3 12.9 3H5.1C3.83988 3 3.20982 3 2.72852 3.24524C2.30516 3.46095 1.96095 3.80516 1.74524 4.22852C1.5 4.70982 1.5 5.33988 1.5 6.6V11.4C1.5 12.6601 1.5 13.2901 1.74524 13.7715C1.96095 14.1949 2.30516 14.5391 2.72852 14.7548C3.20982 15 3.83988 15 5.1 15Z" stroke="#141414" stroke-width="1.5" stroke-linecap="round" stroke-linejoin="round"/>
</svg>
