<svg width="18" height="18" viewBox="0 0 18 18" fill="none" xmlns="http://www.w3.org/2000/svg">
<g clip-path="url(#clip0_244_5699)">
<path d="M17.8245 9.20768C17.8245 8.59588 17.7749 7.98078 17.6691 7.37891H9.17999V10.8446H14.0413C13.8396 11.9624 13.1914 12.9512 12.2423 13.5795V15.8283H15.1425C16.8456 14.2608 17.8245 11.9459 17.8245 9.20768Z" fill="#4285F4"/>
<path d="M9.17995 18C11.6073 18 13.6543 17.203 15.1458 15.8273L12.2455 13.5786C11.4386 14.1275 10.3969 14.4384 9.18326 14.4384C6.83529 14.4384 4.84448 12.8543 4.13016 10.7246H1.13733V13.0428C2.66516 16.0819 5.77705 18 9.17995 18Z" fill="#34A853"/>
<path d="M4.1269 10.725C3.7499 9.60727 3.7499 8.39691 4.1269 7.27914V4.96094H1.13737C-0.139133 7.50402 -0.139133 10.5002 1.13737 13.0432L4.1269 10.725Z" fill="#FBBC04"/>
<path d="M9.17995 3.56224C10.4631 3.5424 11.7032 4.02523 12.6325 4.9115L15.202 2.34196C13.575 0.814129 11.4155 -0.0258495 9.17995 0.000606499C5.77705 0.000606499 2.66516 1.91867 1.13733 4.96111L4.12686 7.27931C4.83786 5.1463 6.83198 3.56224 9.17995 3.56224Z" fill="#EA4335"/>
</g>
<defs>
<clipPath id="clip0_244_5699">
<rect width="18" height="18" fill="white"/>
</clipPath>
</defs>
</svg>
