<svg width="200" height="154" viewBox="0 0 200 154" fill="none" xmlns="http://www.w3.org/2000/svg">
<path d="M153.512 4.65484C156.039 6.57759 158.363 8.90515 160.586 11.1315C165.943 16.6973 170.693 23.0727 174.533 29.853C186.761 51.4079 189.49 77.9216 181.809 101.501C175.543 120.728 161.395 135.705 143.507 144.813C135.725 148.76 126.933 152.099 118.242 153.212C117.939 153.212 117.635 152.403 117.433 152.504C120.162 152.099 122.891 151.391 125.619 150.682C132.188 148.861 138.656 146.331 144.619 143.093C152.704 138.842 160.081 133.276 166.145 126.496C173.623 118.299 178.878 108.281 181.91 97.655C188.58 73.8737 185.043 48.0684 172.309 26.9182C168.873 21.15 164.73 15.6853 160.081 10.8279C158.262 8.90513 156.14 6.77999 154.22 5.36323C154.017 5.16084 153.411 4.55364 153.512 4.65484Z" fill="#F44000" fill-opacity="0.4"/>
<path d="M153.412 4.65464C151.694 2.73189 149.571 3.94627 149.066 4.35106C149.975 4.35106 152.098 4.35105 153.412 4.65464Z" fill="#F44000" fill-opacity="0.4"/>
<path d="M148.864 4.45168C150.683 6.47562 153.007 5.05885 153.31 4.75526C152.098 4.35047 149.773 4.45168 148.864 4.45168Z" fill="#F44000" fill-opacity="0.4"/>
<path d="M153.411 4.75586C153.614 4.75586 153.715 4.85707 153.816 4.95827V4.85706C153.715 4.75587 153.614 4.75586 153.411 4.75586Z" fill="#F44000" fill-opacity="0.4"/>
<path d="M153.714 4.45208C151.996 2.42814 153.613 0.505374 154.017 0.100586C153.815 0.910163 153.512 3.13652 153.714 4.45208Z" fill="#F44000" fill-opacity="0.4"/>
<path d="M154.017 0C155.735 2.02394 154.017 4.14908 153.714 4.45267C153.613 3.1371 153.916 0.809577 154.017 0Z" fill="#F44000" fill-opacity="0.4"/>
<path d="M153.815 4.45312C153.815 4.65552 153.916 4.75672 153.916 4.95911H153.815C153.714 4.75672 153.714 4.65552 153.815 4.45312Z" fill="#F44000" fill-opacity="0.4"/>
<path d="M155.937 6.88153C153.815 4.6552 151.39 6.17317 150.783 6.57795C151.895 6.57795 154.421 6.57794 155.937 6.88153Z" fill="#F44000" fill-opacity="0.4"/>
<path d="M150.683 6.77985C152.805 9.10738 155.534 7.38705 155.938 7.08346C154.422 6.67867 151.693 6.67865 150.683 6.77985Z" fill="#F44000" fill-opacity="0.4"/>
<path d="M155.938 7.0846C156.14 7.1858 156.342 7.18578 156.444 7.28698V7.18577C156.241 7.08458 156.039 7.0846 155.836 6.9834C155.938 6.9834 156.039 6.9834 155.938 7.0846C156.039 6.9834 156.039 6.9834 155.938 7.0846Z" fill="#F44000" fill-opacity="0.4"/>
<path d="M156.241 6.57805C154.22 4.25052 155.938 2.02418 156.443 1.41699C156.342 2.53016 156.039 5.0601 156.241 6.57805Z" fill="#F44000" fill-opacity="0.4"/>
<path d="M156.645 1.41699C158.767 3.74453 156.746 6.27444 156.443 6.67922C156.14 5.06007 156.443 2.32777 156.645 1.41699Z" fill="#F44000" fill-opacity="0.4"/>
<path d="M156.443 6.6793C156.443 6.88169 156.544 7.08409 156.544 7.18528H156.443C156.341 6.98289 156.341 6.78052 156.24 6.57812C156.341 6.67932 156.341 6.6793 156.443 6.6793C156.341 6.6793 156.341 6.6793 156.443 6.6793Z" fill="#F44000" fill-opacity="0.4"/>
<path d="M158.666 9.61358C156.342 7.18485 153.714 8.90518 153.108 9.30997C154.321 9.30997 157.049 9.20879 158.666 9.61358Z" fill="#F44000" fill-opacity="0.4"/>
<path d="M153.007 9.51232C155.331 12.0422 158.262 10.1195 158.666 9.8159C157.049 9.30991 154.119 9.41112 153.007 9.51232Z" fill="#F44000" fill-opacity="0.4"/>
<path d="M158.667 9.71445C158.869 9.81565 159.071 9.81566 159.274 9.91686V9.81566C159.071 9.71446 158.869 9.61328 158.667 9.61328C158.768 9.61328 158.768 9.71445 158.667 9.71445C158.768 9.71445 158.768 9.71445 158.667 9.71445Z" fill="#F44000" fill-opacity="0.4"/>
<path d="M159.071 9.30901C156.847 6.77908 158.767 4.35035 159.273 3.74316C159.172 4.85633 158.767 7.68985 159.071 9.30901Z" fill="#F44000" fill-opacity="0.4"/>
<path d="M159.374 3.64258C161.698 6.17251 159.475 8.90484 159.172 9.30962C158.869 7.69047 159.273 4.65455 159.374 3.64258Z" fill="#F44000" fill-opacity="0.4"/>
<path d="M159.172 9.30957C159.172 9.51196 159.273 9.71437 159.374 9.91676H159.273C159.172 9.71437 159.172 9.51196 159.071 9.30957C159.071 9.30957 159.071 9.30957 159.172 9.30957Z" fill="#F44000" fill-opacity="0.4"/>
<path d="M161.597 12.7496C159.07 10.1185 156.241 11.94 155.533 12.446C156.847 12.3448 159.879 12.2436 161.597 12.7496Z" fill="#F44000" fill-opacity="0.4"/>
<path d="M155.433 12.5474C157.959 15.2797 161.193 13.2557 161.597 12.851C159.879 12.4462 156.645 12.5474 155.433 12.5474Z" fill="#F44000" fill-opacity="0.4"/>
<path d="M161.598 12.8512C161.8 12.9524 162.002 12.9524 162.205 13.0536L162.306 12.9524C162.104 12.8512 161.901 12.75 161.598 12.75C161.598 12.75 161.699 12.8512 161.598 12.8512C161.699 12.8512 161.699 12.8512 161.598 12.8512Z" fill="#F44000" fill-opacity="0.4"/>
<path d="M162.001 12.3453C159.576 9.61294 161.698 6.88062 162.203 6.27344C162.102 7.589 161.698 10.6249 162.001 12.3453Z" fill="#F44000" fill-opacity="0.4"/>
<path d="M162.405 6.17285C164.932 8.90517 162.506 11.9411 162.203 12.3459C161.799 10.6255 162.203 7.38722 162.405 6.17285Z" fill="#F44000" fill-opacity="0.4"/>
<path d="M162.103 12.4469C162.103 12.6493 162.204 12.9529 162.305 13.0541H162.204C162.103 12.8517 162.103 12.6493 162.001 12.3457C162.001 12.4469 162.103 12.4469 162.103 12.4469Z" fill="#F44000" fill-opacity="0.4"/>
<path d="M164.124 15.7869C161.395 12.8522 158.262 14.8761 157.454 15.4833C158.97 15.3821 162.203 15.2809 164.124 15.7869Z" fill="#F44000" fill-opacity="0.4"/>
<path d="M157.353 15.5846C160.081 18.6205 163.618 16.293 164.124 15.8882C162.203 15.3822 158.666 15.4834 157.353 15.5846Z" fill="#F44000" fill-opacity="0.4"/>
<path d="M164.225 15.8889C164.528 15.9901 164.73 15.9901 164.932 16.0913L165.033 15.9901C164.831 15.8889 164.528 15.7877 164.225 15.6865C164.225 15.7877 164.225 15.7877 164.225 15.8889Z" fill="#F44000" fill-opacity="0.4"/>
<path d="M164.629 15.3812C162.001 12.3453 164.326 9.41053 164.932 8.70215C164.73 10.1189 164.326 13.3572 164.629 15.3812Z" fill="#F44000" fill-opacity="0.4"/>
<path d="M165.033 8.60156C167.762 11.6375 165.134 14.8758 164.73 15.3818C164.427 13.3578 164.831 9.81593 165.033 8.60156Z" fill="#F44000" fill-opacity="0.4"/>
<path d="M164.73 15.3815C164.73 15.6851 164.831 15.8875 164.932 16.0899H164.831C164.73 15.8875 164.629 15.5839 164.629 15.2803C164.629 15.3815 164.629 15.3815 164.73 15.3815Z" fill="#F44000" fill-opacity="0.4"/>
<path d="M166.751 19.0242C163.72 15.8871 160.284 18.0122 159.475 18.6194C161.092 18.6194 164.73 18.5182 166.751 19.0242Z" fill="#F44000" fill-opacity="0.4"/>
<path d="M159.374 18.8216C162.405 22.1611 166.246 19.6312 166.751 19.2264C164.73 18.6192 160.788 18.7204 159.374 18.8216Z" fill="#F44000" fill-opacity="0.4"/>
<path d="M166.852 19.2272C167.155 19.3284 167.357 19.4296 167.559 19.5308L167.661 19.4296C167.458 19.3284 167.155 19.2272 166.852 19.126C166.852 19.126 166.852 19.126 166.852 19.2272Z" fill="#F44000" fill-opacity="0.4"/>
<path d="M167.256 18.6192C164.427 15.3809 166.852 12.1426 167.56 11.333C167.357 12.851 166.953 16.4941 167.256 18.6192Z" fill="#F44000" fill-opacity="0.4"/>
<path d="M167.762 11.2324C170.794 14.5719 167.964 18.1138 167.459 18.6198C167.054 16.4947 167.56 12.6492 167.762 11.2324Z" fill="#F44000" fill-opacity="0.4"/>
<path d="M167.459 18.6201C167.459 18.9237 167.56 19.1261 167.661 19.4297L167.56 19.5309C167.459 19.3285 167.357 19.0249 167.357 18.7213C167.357 18.6201 167.357 18.7213 167.459 18.6201C167.357 18.7213 167.357 18.7213 167.459 18.6201Z" fill="#F44000" fill-opacity="0.4"/>
<path d="M169.682 23.2747C166.751 19.6316 162.911 21.6556 161.9 22.1615C163.517 22.2627 167.459 22.4651 169.682 23.2747Z" fill="#F44000" fill-opacity="0.4"/>
<path d="M161.698 22.3643C164.629 26.2097 168.974 23.8822 169.682 23.4774C167.458 22.6679 163.214 22.3643 161.698 22.3643Z" fill="#F44000" fill-opacity="0.4"/>
<path d="M169.681 23.4772C169.984 23.5784 170.288 23.6796 170.49 23.882L170.591 23.7808C170.389 23.6796 170.085 23.4772 169.681 23.376C169.681 23.376 169.681 23.376 169.681 23.4772C169.782 23.376 169.681 23.376 169.681 23.4772Z" fill="#F44000" fill-opacity="0.4"/>
<path d="M170.187 22.8703C167.458 19.126 170.389 15.8877 171.198 15.0781C170.793 16.6973 170.086 20.5428 170.187 22.8703Z" fill="#F44000" fill-opacity="0.4"/>
<path d="M171.399 14.9775C174.33 18.823 170.894 22.3649 170.389 22.9721C170.187 20.5434 171.096 16.3943 171.399 14.9775Z" fill="#F44000" fill-opacity="0.4"/>
<path d="M170.389 22.8707C170.389 23.1743 170.491 23.4779 170.491 23.6803H170.389C170.288 23.3767 170.288 23.0731 170.187 22.7695C170.288 22.8707 170.288 22.9719 170.389 22.8707C170.389 22.9719 170.288 22.9719 170.389 22.8707Z" fill="#F44000" fill-opacity="0.4"/>
<path d="M173.22 28.9417C169.783 24.5902 165.135 27.019 164.124 27.6262C166.044 27.7274 170.592 28.0309 173.22 28.9417Z" fill="#F44000" fill-opacity="0.4"/>
<path d="M163.82 27.8281C167.256 32.382 172.411 29.5485 173.219 29.1437C170.591 28.2329 165.639 27.9293 163.82 27.8281Z" fill="#F44000" fill-opacity="0.4"/>
<path d="M173.219 29.1434C173.522 29.2446 173.927 29.447 174.129 29.5482L174.23 29.3458C173.927 29.1434 173.623 29.0422 173.219 28.8398L173.32 28.941C173.32 29.1434 173.219 29.1434 173.219 29.1434Z" fill="#F44000" fill-opacity="0.4"/>
<path d="M173.826 28.4355C170.592 23.9828 174.028 20.1373 174.938 19.2266C174.634 21.1493 173.624 25.7032 173.826 28.4355Z" fill="#F44000" fill-opacity="0.4"/>
<path d="M175.24 19.126C178.676 23.6798 174.735 27.9301 174.027 28.5373C173.825 25.7038 174.836 20.8463 175.24 19.126Z" fill="#F44000" fill-opacity="0.4"/>
<path d="M174.028 28.5371C174.028 28.9419 174.129 29.2455 174.23 29.5491L174.028 29.6503C173.927 29.3467 173.927 28.9419 173.826 28.5371C173.927 28.5371 173.927 28.5371 174.028 28.5371Z" fill="#F44000" fill-opacity="0.4"/>
<path d="M176.959 36.1285C174.23 30.6639 168.672 32.283 167.358 32.6878C169.48 33.295 174.331 34.6105 176.959 36.1285Z" fill="#F44000" fill-opacity="0.4"/>
<path d="M167.155 32.8906C169.884 38.5577 176.049 36.6349 176.958 36.3313C174.331 34.8134 169.075 33.3966 167.155 32.8906Z" fill="#F44000" fill-opacity="0.4"/>
<path d="M176.958 36.4323C177.262 36.6347 177.666 36.837 177.868 37.1406L177.969 37.0394C177.666 36.837 177.363 36.5334 176.958 36.3311C176.958 36.4323 177.06 36.4322 177.06 36.5334C177.06 36.331 177.06 36.3311 176.958 36.4323Z" fill="#F44000" fill-opacity="0.4"/>
<path d="M177.767 35.7221C175.241 30.1563 179.889 26.8168 181.001 26.1084C180.193 28.0311 178.171 32.7874 177.767 35.7221Z" fill="#F44000" fill-opacity="0.4"/>
<path d="M181.304 26.0078C184.033 31.6749 178.778 35.318 177.969 35.9251C178.373 32.788 180.496 27.8294 181.304 26.0078Z" fill="#F44000" fill-opacity="0.4"/>
<path d="M177.969 35.8239C177.969 36.2286 177.868 36.6334 177.969 36.937H177.767C177.767 36.5322 177.767 36.1274 177.767 35.7227C177.767 35.8239 177.767 35.8239 177.868 35.9251C177.868 35.9251 177.969 35.9251 177.969 35.8239Z" fill="#F44000" fill-opacity="0.4"/>
<path d="M180.192 43.9185C177.059 37.7454 170.894 39.567 169.378 40.073C171.703 40.6801 177.261 42.1981 180.192 43.9185Z" fill="#F44000" fill-opacity="0.4"/>
<path d="M169.076 40.2754C172.209 46.6508 179.081 44.5257 180.192 44.2221C177.161 42.4005 171.198 40.7814 169.076 40.2754Z" fill="#F44000" fill-opacity="0.4"/>
<path d="M180.192 44.2215C180.597 44.4239 180.9 44.7275 181.203 44.9299L181.405 44.7275C181.102 44.4239 180.698 44.1204 180.293 43.918C180.293 44.0192 180.395 44.0191 180.395 44.1203C180.293 44.1203 180.192 44.2215 180.192 44.2215Z" fill="#F44000" fill-opacity="0.4"/>
<path d="M181.102 43.5143C178.171 37.24 183.426 33.4957 184.841 32.585C183.831 34.8113 181.506 40.0736 181.102 43.5143Z" fill="#F44000" fill-opacity="0.4"/>
<path d="M185.144 32.4844C188.176 38.8598 182.314 43.0089 181.304 43.6161C181.708 40.1754 184.234 34.5083 185.144 32.4844Z" fill="#F44000" fill-opacity="0.4"/>
<path d="M181.304 43.6155C181.203 44.1214 181.203 44.5262 181.304 44.8298H181.102C181.102 44.4251 181.102 43.9191 181.203 43.4131C181.203 43.5143 181.304 43.5143 181.304 43.6155C181.304 43.7167 181.203 43.7167 181.304 43.6155Z" fill="#F44000" fill-opacity="0.4"/>
<path d="M182.92 54.8488C180.091 47.6638 172.915 48.8782 171.197 49.2829C173.825 50.1937 179.889 52.5213 182.92 54.8488Z" fill="#F44000" fill-opacity="0.4"/>
<path d="M170.895 49.3838C173.623 56.8724 181.708 55.3544 182.921 55.0508C179.788 52.7233 173.219 50.2946 170.895 49.3838Z" fill="#F44000" fill-opacity="0.4"/>
<path d="M182.921 55.0507C183.325 55.3543 183.729 55.6579 183.932 55.9614L184.134 55.759C183.83 55.4555 183.426 55.0507 182.921 54.7471C182.921 54.8483 183.022 54.9495 183.022 54.9495C183.022 55.0507 183.022 55.0507 182.921 55.0507Z" fill="#F44000" fill-opacity="0.4"/>
<path d="M184.032 54.4436C181.505 47.0562 187.771 43.4131 189.388 42.6035C188.074 44.931 184.941 50.5981 184.032 54.4436Z" fill="#F44000" fill-opacity="0.4"/>
<path d="M189.793 42.5029C192.521 49.9915 185.447 54.0394 184.234 54.5454C185.144 50.6999 188.58 44.6281 189.793 42.5029Z" fill="#F44000" fill-opacity="0.4"/>
<path d="M184.336 54.5455C184.235 55.0515 184.134 55.5575 184.134 55.9623H183.83C183.83 55.4563 183.931 54.9503 184.032 54.4443C184.032 54.5455 184.134 54.6467 184.134 54.6467C184.134 54.6467 184.235 54.6467 184.336 54.5455Z" fill="#F44000" fill-opacity="0.4"/>
<path d="M184.336 65.4748C181.81 56.9743 173.523 57.7839 171.501 58.0875C174.331 59.403 181.102 62.5401 184.336 65.4748Z" fill="#F44000" fill-opacity="0.4"/>
<path d="M171.097 58.1885C173.522 66.9926 182.82 65.9806 184.235 65.6771C180.9 62.7423 173.724 59.4028 171.097 58.1885Z" fill="#F44000" fill-opacity="0.4"/>
<path d="M184.235 65.7792C184.639 66.184 185.043 66.5888 185.347 66.9935L185.549 66.7912C185.245 66.3864 184.841 65.8804 184.336 65.4756C184.336 65.5768 184.437 65.678 184.437 65.7792C184.437 65.678 184.336 65.7792 184.235 65.7792Z" fill="#F44000" fill-opacity="0.4"/>
<path d="M185.65 65.0694C183.426 56.4677 190.905 52.9258 192.825 52.1162C191.107 54.7473 186.963 60.9203 185.65 65.0694Z" fill="#F44000" fill-opacity="0.4"/>
<path d="M193.229 52.0156C195.655 60.8198 187.166 64.6653 185.852 65.2725C187.166 61.0222 191.613 54.4444 193.229 52.0156Z" fill="#F44000" fill-opacity="0.4"/>
<path d="M185.852 65.2721C185.65 65.8793 185.549 66.3852 185.549 66.8912H185.245C185.245 66.3852 185.448 65.7781 185.65 65.1709C185.65 65.2721 185.65 65.3733 185.751 65.4745C185.751 65.3733 185.751 65.3733 185.852 65.2721Z" fill="#F44000" fill-opacity="0.4"/>
<path d="M184.74 79.1373C184.134 68.9164 174.634 67.4996 172.31 67.3984C175.139 69.5236 181.809 74.9882 184.74 79.1373Z" fill="#F44000" fill-opacity="0.4"/>
<path d="M171.703 67.3984C172.107 78.0241 182.82 79.3397 184.437 79.4409C181.506 75.1906 174.331 69.4224 171.703 67.3984Z" fill="#F44000" fill-opacity="0.4"/>
<path d="M184.538 79.4403C184.942 80.0475 185.245 80.5535 185.447 81.0595L185.75 80.9583C185.548 80.3511 185.144 79.7439 184.74 79.1367C184.74 79.2379 184.74 79.3391 184.74 79.4403C184.74 79.4403 184.639 79.4403 184.538 79.4403Z" fill="#F44000" fill-opacity="0.4"/>
<path d="M186.256 79.1369C186.054 68.916 195.554 66.8921 197.878 66.4873C195.149 68.916 188.884 74.6843 186.256 79.1369Z" fill="#F44000" fill-opacity="0.4"/>
<path d="M198.383 66.4873C198.686 77.113 188.176 79.137 186.458 79.4406C189.086 74.8867 195.857 68.7136 198.383 66.4873Z" fill="#F44000" fill-opacity="0.4"/>
<path d="M186.458 79.3397C186.155 79.9469 185.851 80.5541 185.649 81.0601L185.346 80.9589C185.548 80.3517 185.851 79.7445 186.256 79.0361C186.256 79.1373 186.256 79.2385 186.256 79.3397C186.256 79.4409 186.357 79.4409 186.458 79.3397Z" fill="#F44000" fill-opacity="0.4"/>
<path d="M182.113 94.6192C183.224 82.7791 172.512 79.5408 169.783 78.9336C172.714 81.9695 179.485 89.2557 182.113 94.6192Z" fill="#F44000" fill-opacity="0.4"/>
<path d="M169.278 78.9336C167.964 91.1784 179.99 94.5179 181.91 94.9227C179.182 89.4581 171.905 81.6659 169.278 78.9336Z" fill="#F44000" fill-opacity="0.4"/>
<path d="M181.81 94.9227C182.113 95.6311 182.416 96.3395 182.618 96.9467L183.022 96.8455C182.82 96.1371 182.517 95.4287 182.113 94.6191C182.113 94.7203 182.113 94.8215 182.113 95.0239C182.113 95.0239 182.012 94.9227 181.81 94.9227Z" fill="#F44000" fill-opacity="0.4"/>
<path d="M183.932 94.8209C185.549 82.9808 196.665 82.2725 199.394 82.2725C195.857 84.6 187.671 90.1658 183.932 94.8209Z" fill="#F44000" fill-opacity="0.4"/>
<path d="M200.001 82.373C198.586 94.6179 186.054 95.1239 184.134 95.1239C187.975 90.4688 196.767 84.4982 200.001 82.373Z" fill="#F44000" fill-opacity="0.4"/>
<path d="M184.134 95.2261C183.629 95.8333 183.225 96.4405 182.921 97.0476L182.618 96.8452C182.921 96.238 183.427 95.5297 184.033 94.8213C184.033 94.9225 184.033 95.0237 183.932 95.2261C183.932 95.2261 184.033 95.2261 184.134 95.2261Z" fill="#F44000" fill-opacity="0.4"/>
<path d="M177.16 108.181C181.101 95.4298 170.187 89.4591 167.357 88.1436C169.782 92.1914 175.442 101.805 177.16 108.181Z" fill="#F44000" fill-opacity="0.4"/>
<path d="M166.65 87.9414C162.304 100.996 174.734 107.574 176.756 108.484C175.139 101.907 168.974 91.6857 166.65 87.9414Z" fill="#F44000" fill-opacity="0.4"/>
<path d="M176.756 108.484C176.958 109.395 177.16 110.205 177.16 110.913H177.564C177.564 110.103 177.362 109.193 177.16 108.181C177.16 108.282 177.059 108.484 177.059 108.585C176.958 108.585 176.857 108.585 176.756 108.484Z" fill="#F44000" fill-opacity="0.4"/>
<path d="M179.08 108.889C183.527 96.3403 195.957 98.1618 198.989 98.769C194.542 100.489 184.234 104.74 179.08 108.889Z" fill="#F44000" fill-opacity="0.4"/>
<path d="M199.596 98.9717C195.149 112.026 181.304 109.699 179.182 109.294C184.437 105.044 195.554 100.591 199.596 98.9717Z" fill="#F44000" fill-opacity="0.4"/>
<path d="M179.181 109.294C178.474 109.901 177.868 110.407 177.362 111.014L177.059 110.711C177.564 110.104 178.272 109.496 179.08 108.788C179.08 108.889 178.979 109.092 178.979 109.193C178.878 109.294 178.979 109.294 179.181 109.294Z" fill="#F44000" fill-opacity="0.4"/>
<path d="M168.873 121.133C174.634 106.965 162.709 99.0719 159.677 97.3516C162.102 102.108 167.661 113.644 168.873 121.133Z" fill="#F44000" fill-opacity="0.4"/>
<path d="M158.969 97.0479C152.805 111.519 166.347 120.222 168.469 121.436C167.155 113.847 161.193 101.501 158.969 97.0479Z" fill="#F44000" fill-opacity="0.4"/>
<path d="M168.368 121.436C168.571 122.448 168.571 123.359 168.571 124.27H169.077C169.077 123.359 168.975 122.246 168.874 121.133C168.773 121.335 168.773 121.436 168.672 121.538C168.672 121.639 168.571 121.538 168.368 121.436Z" fill="#F44000" fill-opacity="0.4"/>
<path d="M170.996 122.145C177.362 108.281 191.309 111.519 194.644 112.632C189.49 114.049 177.362 117.894 170.996 122.145Z" fill="#F44000" fill-opacity="0.4"/>
<path d="M195.351 112.834C189.086 127.305 173.522 123.358 171.097 122.65C177.565 118.299 190.601 114.251 195.351 112.834Z" fill="#F44000" fill-opacity="0.4"/>
<path d="M171.097 122.651C170.187 123.258 169.48 123.866 168.873 124.371L168.469 123.967C169.076 123.258 169.985 122.651 170.895 122.044C170.794 122.145 170.794 122.348 170.693 122.449C170.794 122.55 170.895 122.55 171.097 122.651Z" fill="#F44000" fill-opacity="0.4"/>
<path d="M155.331 133.885C164.224 120.729 153.714 110.104 150.985 107.675C152.501 113.139 155.634 125.991 155.331 133.885Z" fill="#F44000" fill-opacity="0.4"/>
<path d="M150.379 107.27C140.98 120.729 152.905 132.366 154.825 134.087C155.129 126.092 151.693 112.329 150.379 107.27Z" fill="#F44000" fill-opacity="0.4"/>
<path d="M154.826 134.086C154.725 135.199 154.624 136.11 154.421 137.021L154.927 137.122C155.129 136.211 155.23 135.098 155.331 133.884C155.23 133.985 155.129 134.187 155.028 134.289C155.028 134.39 154.927 134.289 154.826 134.086Z" fill="#F44000" fill-opacity="0.4"/>
<path d="M157.352 135.301C166.751 122.55 180.293 128.824 183.426 130.646C177.867 131.05 164.628 132.366 157.352 135.301Z" fill="#F44000" fill-opacity="0.4"/>
<path d="M184.033 131.151C174.533 144.509 159.576 137.122 157.251 135.908C164.73 132.872 178.879 131.556 184.033 131.151Z" fill="#F44000" fill-opacity="0.4"/>
<path d="M157.352 135.908C156.342 136.313 155.432 136.718 154.725 137.224L154.421 136.819C155.23 136.313 156.24 135.807 157.352 135.402C157.251 135.504 157.15 135.706 157.049 135.807C157.049 135.706 157.15 135.807 157.352 135.908Z" fill="#F44000" fill-opacity="0.4"/>
<path d="M140.071 142.992C151.794 129.837 141.89 116.681 139.262 113.544C140.071 119.717 141.587 134.391 140.071 142.992Z" fill="#F44000" fill-opacity="0.4"/>
<path d="M138.656 113.038C126.326 126.396 137.645 140.969 139.565 143.195C141.081 134.391 139.363 118.705 138.656 113.038Z" fill="#F44000" fill-opacity="0.4"/>
<path d="M139.465 143.195C139.263 144.409 138.959 145.421 138.656 146.332L139.162 146.534C139.566 145.522 139.869 144.409 140.071 143.094C139.97 143.195 139.869 143.397 139.667 143.499C139.768 143.499 139.667 143.397 139.465 143.195Z" fill="#F44000" fill-opacity="0.4"/>
<path d="M142.092 144.915C154.32 132.265 168.267 141.272 171.501 143.7C165.235 143.296 150.581 142.688 142.092 144.915Z" fill="#F44000" fill-opacity="0.4"/>
<path d="M172.006 144.307C159.576 157.564 144.215 147.242 141.89 145.522C150.581 143.295 166.347 143.903 172.006 144.307Z" fill="#F44000" fill-opacity="0.4"/>
<path d="M141.991 145.522C140.88 145.825 139.768 146.129 138.959 146.534L138.757 146.028C139.667 145.522 140.88 145.218 142.193 144.813C142.092 144.915 141.89 145.117 141.789 145.218C141.688 145.319 141.789 145.319 141.991 145.522Z" fill="#F44000" fill-opacity="0.4"/>
<path d="M46.5892 4.65484C44.0627 6.57759 41.7383 8.90515 39.515 11.1315C34.1587 16.6973 29.4089 23.0727 25.5685 29.853C13.3401 51.4079 10.6115 77.9216 18.2921 101.501C24.5579 120.728 38.7065 135.705 56.5943 144.813C64.376 148.76 73.1683 152.099 81.8595 153.212C82.1627 153.212 82.4659 152.403 82.668 152.504C79.9394 152.099 77.2107 151.391 74.4821 150.682C67.9131 148.861 61.4452 146.331 55.4826 143.093C47.3977 138.842 40.0203 133.276 33.9566 126.496C26.4781 118.299 21.2229 108.281 18.1911 97.655C11.5211 73.8737 15.0582 48.0684 27.7919 26.9182C31.228 21.15 35.3715 15.6853 40.0203 10.8279C41.8394 8.90513 43.9616 6.77999 45.8818 5.36323C45.9829 5.16084 46.5892 4.55364 46.5892 4.65484Z" fill="#F44000" fill-opacity="0.4"/>
<path d="M46.6907 4.65464C48.4087 2.73189 50.531 3.94627 51.0363 4.35106C50.1267 4.35106 47.9034 4.35105 46.6907 4.65464Z" fill="#F44000" fill-opacity="0.4"/>
<path d="M51.1374 4.45168C49.3183 6.47562 46.9939 5.05885 46.6907 4.75526C47.9034 4.35047 50.2278 4.45168 51.1374 4.45168Z" fill="#F44000" fill-opacity="0.4"/>
<path d="M46.6907 4.75586C46.4883 4.75586 46.3871 4.85707 46.2859 4.95827V4.85706C46.2859 4.75587 46.4883 4.75586 46.6907 4.75586Z" fill="#F44000" fill-opacity="0.4"/>
<path d="M46.3867 4.45208C48.1047 2.42814 46.4877 0.505374 46.0835 0.100586C46.1846 0.910163 46.4877 3.13652 46.3867 4.45208Z" fill="#F44000" fill-opacity="0.4"/>
<path d="M45.9823 0C44.2643 2.02394 45.9823 4.14908 46.2855 4.45267C46.4876 3.1371 46.0834 0.809577 45.9823 0Z" fill="#F44000" fill-opacity="0.4"/>
<path d="M46.2855 4.45312C46.2855 4.65552 46.1843 4.75672 46.1843 4.95911H46.2855C46.2855 4.75672 46.2855 4.65552 46.2855 4.45312Z" fill="#F44000" fill-opacity="0.4"/>
<path d="M44.0627 6.88153C46.185 4.6552 48.6105 6.17317 49.2169 6.57795C48.1052 6.57795 45.5787 6.57794 44.0627 6.88153Z" fill="#F44000" fill-opacity="0.4"/>
<path d="M49.3179 6.77985C47.1956 9.10738 44.467 7.38705 44.0627 7.08346C45.5787 6.67867 48.3073 6.67865 49.3179 6.77985Z" fill="#F44000" fill-opacity="0.4"/>
<path d="M44.0636 7.0846C43.8612 7.1858 43.6588 7.18578 43.5576 7.28698V7.18577C43.76 7.08458 43.9624 7.0846 44.1648 6.9834C44.0636 6.9834 44.0636 6.9834 44.0636 7.0846C44.0636 6.9834 44.0636 6.9834 44.0636 7.0846Z" fill="#F44000" fill-opacity="0.4"/>
<path d="M43.7597 6.57805C45.781 4.25052 44.0629 2.02418 43.5576 1.41699C43.6587 2.53016 43.9619 5.0601 43.7597 6.57805Z" fill="#F44000" fill-opacity="0.4"/>
<path d="M43.4563 1.41699C41.334 3.74453 43.3552 6.27444 43.6584 6.67922C43.8605 5.06007 43.5574 2.32777 43.4563 1.41699Z" fill="#F44000" fill-opacity="0.4"/>
<path d="M43.6588 6.6793C43.6588 6.88169 43.5576 7.08409 43.5576 7.18528H43.6588C43.76 6.98289 43.76 6.78052 43.8612 6.57812C43.76 6.67932 43.6588 6.6793 43.6588 6.6793Z" fill="#F44000" fill-opacity="0.4"/>
<path d="M41.3342 9.61358C43.6586 7.18485 46.2862 8.90518 46.8926 9.30997C45.6799 9.30997 42.9512 9.20879 41.3342 9.61358Z" fill="#F44000" fill-opacity="0.4"/>
<path d="M46.9936 9.51232C44.6692 12.0422 41.7385 10.1195 41.3342 9.8159C42.9512 9.30991 45.882 9.41112 46.9936 9.51232Z" fill="#F44000" fill-opacity="0.4"/>
<path d="M41.335 9.71445C41.1326 9.81565 40.9302 9.81566 40.7278 9.91686V9.81566C40.9302 9.71446 41.1326 9.61328 41.335 9.61328C41.335 9.61328 41.2338 9.71445 41.335 9.71445C41.2338 9.71445 41.2338 9.71445 41.335 9.71445Z" fill="#F44000" fill-opacity="0.4"/>
<path d="M40.9299 9.30901C43.1532 6.77908 41.2331 4.35035 40.7278 3.74316C40.9299 4.85633 41.2331 7.68985 40.9299 9.30901Z" fill="#F44000" fill-opacity="0.4"/>
<path d="M40.6267 3.64258C38.3023 6.17251 40.5256 8.90484 40.8288 9.30962C41.132 7.69047 40.7278 4.65455 40.6267 3.64258Z" fill="#F44000" fill-opacity="0.4"/>
<path d="M40.8293 9.30957C40.8293 9.51196 40.7282 9.71437 40.627 9.91676H40.7281C40.8293 9.71437 40.8293 9.51196 40.9305 9.30957C40.9305 9.30957 40.9305 9.30957 40.8293 9.30957Z" fill="#F44000" fill-opacity="0.4"/>
<path d="M38.4031 12.7496C40.9296 10.1185 43.7593 11.94 44.4667 12.446C43.254 12.3448 40.2222 12.2436 38.4031 12.7496Z" fill="#F44000" fill-opacity="0.4"/>
<path d="M44.5678 12.5474C42.0413 15.2797 38.8073 13.2557 38.4031 12.851C40.2222 12.4462 43.4561 12.5474 44.5678 12.5474Z" fill="#F44000" fill-opacity="0.4"/>
<path d="M38.4039 12.8512C38.2015 12.9524 37.9991 12.9524 37.7968 13.0536L37.6956 12.9524C37.898 12.8512 38.1003 12.75 38.4039 12.75C38.4039 12.75 38.4039 12.8512 38.4039 12.8512Z" fill="#F44000" fill-opacity="0.4"/>
<path d="M37.9992 12.3453C40.4247 9.61294 38.3024 6.88062 37.7971 6.27344C37.9992 7.589 38.3024 10.6249 37.9992 12.3453Z" fill="#F44000" fill-opacity="0.4"/>
<path d="M37.5947 6.17285C35.0682 8.90517 37.4936 11.9411 37.7968 12.3459C38.2011 10.6255 37.7968 7.38722 37.5947 6.17285Z" fill="#F44000" fill-opacity="0.4"/>
<path d="M37.8984 12.4469C37.8984 12.6493 37.7972 12.9529 37.696 13.0541H37.7972C37.8984 12.8517 37.8984 12.6493 37.9996 12.3457C37.9996 12.4469 37.9996 12.4469 37.8984 12.4469Z" fill="#F44000" fill-opacity="0.4"/>
<path d="M35.8762 15.7869C38.6049 12.8522 41.7378 14.8761 42.5463 15.4833C41.1314 15.3821 37.7964 15.2809 35.8762 15.7869Z" fill="#F44000" fill-opacity="0.4"/>
<path d="M42.6473 15.5846C39.9187 18.6205 36.3815 16.293 35.8762 15.8882C37.7964 15.3822 41.3335 15.4834 42.6473 15.5846Z" fill="#F44000" fill-opacity="0.4"/>
<path d="M35.8764 15.8889C35.5732 15.9901 35.3711 15.9901 35.1689 16.0913L35.0679 15.9901C35.27 15.8889 35.5732 15.7877 35.8764 15.6865C35.8764 15.7877 35.7753 15.7877 35.8764 15.8889C35.7753 15.8889 35.7753 15.8889 35.8764 15.8889Z" fill="#F44000" fill-opacity="0.4"/>
<path d="M35.3713 15.3812C37.9989 12.3453 35.6745 9.41053 35.0681 8.70215C35.3713 10.1189 35.7755 13.3572 35.3713 15.3812Z" fill="#F44000" fill-opacity="0.4"/>
<path d="M34.9671 8.60156C32.2385 11.6375 34.8661 14.8758 35.2703 15.3818C35.5735 13.3578 35.1692 9.81593 34.9671 8.60156Z" fill="#F44000" fill-opacity="0.4"/>
<path d="M35.2705 15.3815C35.2705 15.6851 35.1693 15.8875 35.0681 16.0899H35.1693C35.2705 15.8875 35.3717 15.5839 35.3717 15.2803C35.3717 15.3815 35.3717 15.3815 35.2705 15.3815Z" fill="#F44000" fill-opacity="0.4"/>
<path d="M33.2488 19.0242C36.2806 15.8871 39.7167 18.0122 40.5252 18.6194C38.9082 18.6194 35.3711 18.5182 33.2488 19.0242Z" fill="#F44000" fill-opacity="0.4"/>
<path d="M40.6262 18.8216C37.5944 22.1611 33.7541 19.6312 33.2488 19.2264C35.3711 18.6192 39.2114 18.7204 40.6262 18.8216Z" fill="#F44000" fill-opacity="0.4"/>
<path d="M33.2487 19.2272C32.9455 19.3284 32.7434 19.4296 32.5412 19.5308L32.4402 19.4296C32.6423 19.3284 32.9455 19.2272 33.2487 19.126C33.2487 19.126 33.1476 19.126 33.2487 19.2272C33.1476 19.2272 33.1476 19.126 33.2487 19.2272Z" fill="#F44000" fill-opacity="0.4"/>
<path d="M32.7436 18.6192C35.5733 15.3809 33.1479 12.1426 32.4404 11.333C32.6426 12.851 33.1479 16.4941 32.7436 18.6192Z" fill="#F44000" fill-opacity="0.4"/>
<path d="M32.3397 11.2324C29.3079 14.5719 32.1376 18.1138 32.6429 18.6198C32.9461 16.4947 32.5418 12.6492 32.3397 11.2324Z" fill="#F44000" fill-opacity="0.4"/>
<path d="M32.6428 18.6201C32.6428 18.9237 32.5416 19.1261 32.4404 19.4297L32.5416 19.5309C32.6428 19.3285 32.744 19.0249 32.744 18.7213C32.744 18.6201 32.744 18.7213 32.6428 18.6201C32.6428 18.7213 32.6428 18.7213 32.6428 18.6201Z" fill="#F44000" fill-opacity="0.4"/>
<path d="M30.4202 23.2747C33.3509 19.6316 37.1913 21.6556 38.2019 22.1615C36.4838 22.2627 32.5424 22.4651 30.4202 23.2747Z" fill="#F44000" fill-opacity="0.4"/>
<path d="M38.3032 22.3643C35.3724 26.2097 31.0268 23.8822 30.3193 23.4774C32.6437 22.6679 36.7872 22.3643 38.3032 22.3643Z" fill="#F44000" fill-opacity="0.4"/>
<path d="M30.319 23.4772C30.0158 23.5784 29.7126 23.6796 29.5105 23.882L29.4094 23.7808C29.6115 23.6796 29.9147 23.4772 30.319 23.376C30.319 23.376 30.319 23.376 30.319 23.4772C30.319 23.376 30.319 23.376 30.319 23.4772Z" fill="#F44000" fill-opacity="0.4"/>
<path d="M29.8133 22.8703C32.542 19.126 29.6112 15.8877 28.8027 15.0781C29.207 16.6973 30.0155 20.5428 29.8133 22.8703Z" fill="#F44000" fill-opacity="0.4"/>
<path d="M28.6007 14.9775C25.6699 18.823 29.106 22.3649 29.6113 22.9721C29.8134 20.5434 29.0049 16.3943 28.6007 14.9775Z" fill="#F44000" fill-opacity="0.4"/>
<path d="M29.6114 22.8707C29.6114 23.1743 29.5103 23.4779 29.5103 23.6803H29.6114C29.7126 23.3767 29.7126 23.0731 29.8138 22.7695C29.8138 22.8707 29.7126 22.9719 29.6114 22.8707C29.7126 22.9719 29.7126 22.9719 29.6114 22.8707Z" fill="#F44000" fill-opacity="0.4"/>
<path d="M26.8821 28.9417C30.3182 24.5902 34.967 27.019 35.9776 27.6262C34.0574 27.7274 29.4086 28.0309 26.8821 28.9417Z" fill="#F44000" fill-opacity="0.4"/>
<path d="M36.1797 27.8281C32.7436 32.382 27.5895 29.5485 26.781 29.1437C29.4086 28.2329 34.3606 27.9293 36.1797 27.8281Z" fill="#F44000" fill-opacity="0.4"/>
<path d="M26.7809 29.1434C26.4777 29.2446 26.0734 29.447 25.8713 29.5482L25.7703 29.3458C26.0734 29.1434 26.3766 29.0422 26.7809 28.8398L26.6798 28.941C26.6798 29.1434 26.7809 29.1434 26.7809 29.1434Z" fill="#F44000" fill-opacity="0.4"/>
<path d="M26.1749 28.4355C29.4089 23.9828 25.9728 20.1373 25.0632 19.2266C25.4675 21.1493 26.377 25.7032 26.1749 28.4355Z" fill="#F44000" fill-opacity="0.4"/>
<path d="M24.7601 19.126C21.324 23.6798 25.2654 27.9301 25.9728 28.5373C26.1749 25.7038 25.1643 20.8463 24.7601 19.126Z" fill="#F44000" fill-opacity="0.4"/>
<path d="M25.9727 28.5371C25.9727 28.9419 25.8715 29.2455 25.7703 29.5491L25.9727 29.6503C26.0739 29.3467 26.0739 28.9419 26.175 28.5371C26.175 28.5371 26.0739 28.5371 25.9727 28.5371C26.0739 28.6383 26.0739 28.5371 25.9727 28.5371Z" fill="#F44000" fill-opacity="0.4"/>
<path d="M23.0415 36.1285C25.7702 30.6639 31.3285 32.283 32.6423 32.6878C30.52 33.295 25.6691 34.6105 23.0415 36.1285Z" fill="#F44000" fill-opacity="0.4"/>
<path d="M32.9457 32.8906C30.2171 38.5577 24.0524 36.6349 23.1428 36.3313C25.6693 34.8134 31.0256 33.3966 32.9457 32.8906Z" fill="#F44000" fill-opacity="0.4"/>
<path d="M23.1427 36.4323C22.8395 36.6347 22.4353 36.837 22.2331 37.1406L22.1321 37.0394C22.4353 36.837 22.7384 36.5334 23.1427 36.3311C23.1427 36.4323 23.0416 36.4322 23.0416 36.5334C22.9406 36.331 23.0416 36.3311 23.1427 36.4323Z" fill="#F44000" fill-opacity="0.4"/>
<path d="M22.233 35.7221C24.7595 30.1563 20.1107 26.8168 18.999 26.1084C19.8075 28.0311 21.8287 32.7874 22.233 35.7221Z" fill="#F44000" fill-opacity="0.4"/>
<path d="M18.6964 26.0078C15.9678 31.6749 21.223 35.318 22.0315 35.9251C21.7283 32.788 19.5049 27.8294 18.6964 26.0078Z" fill="#F44000" fill-opacity="0.4"/>
<path d="M22.0308 35.8239C22.0308 36.2286 22.132 36.6334 22.0308 36.937H22.2332C22.2332 36.5322 22.2332 36.1274 22.2332 35.7227C22.2332 35.8239 22.2332 35.8239 22.132 35.9251C22.132 35.9251 22.132 35.9251 22.0308 35.8239Z" fill="#F44000" fill-opacity="0.4"/>
<path d="M19.8083 43.9185C22.9412 37.7454 29.106 39.567 30.6219 40.073C28.2975 40.6801 22.7391 42.1981 19.8083 43.9185Z" fill="#F44000" fill-opacity="0.4"/>
<path d="M31.0259 40.2754C27.893 46.6508 21.0209 44.5257 19.9092 44.2221C22.8399 42.4005 28.8025 40.7814 31.0259 40.2754Z" fill="#F44000" fill-opacity="0.4"/>
<path d="M19.9093 44.2215C19.505 44.4239 19.2018 44.7275 18.8987 44.9299L18.6965 44.7275C18.9997 44.4239 19.404 44.1204 19.8082 43.918C19.8082 44.0192 19.7071 44.0191 19.7071 44.1203C19.7071 44.1203 19.8082 44.2215 19.9093 44.2215Z" fill="#F44000" fill-opacity="0.4"/>
<path d="M18.8987 43.5143C21.8295 37.24 16.5743 33.4957 15.1594 32.585C16.17 34.8113 18.4944 40.0736 18.8987 43.5143Z" fill="#F44000" fill-opacity="0.4"/>
<path d="M14.8563 32.4844C11.8245 38.8598 17.686 43.0089 18.6966 43.6161C18.2924 40.1754 15.7659 34.5083 14.8563 32.4844Z" fill="#F44000" fill-opacity="0.4"/>
<path d="M18.6968 43.6155C18.798 44.1214 18.798 44.5262 18.6968 44.8298H18.8992C18.8992 44.4251 18.8992 43.9191 18.798 43.4131C18.798 43.5143 18.6968 43.5143 18.6968 43.6155C18.798 43.7167 18.798 43.7167 18.6968 43.6155Z" fill="#F44000" fill-opacity="0.4"/>
<path d="M17.0789 54.8488C19.9086 47.6638 27.0839 48.8782 28.8019 49.2829C26.1744 50.1937 20.1107 52.5213 17.0789 54.8488Z" fill="#F44000" fill-opacity="0.4"/>
<path d="M29.1051 49.3838C26.3765 56.8724 18.2916 55.3544 17.0789 55.0508C20.2117 52.7233 26.7807 50.2946 29.1051 49.3838Z" fill="#F44000" fill-opacity="0.4"/>
<path d="M17.18 55.0507C16.7758 55.3543 16.3715 55.6579 16.1694 55.9614L15.9673 55.759C16.2705 55.4555 16.6747 55.0507 17.18 54.7471C17.18 54.8483 17.079 54.9495 17.079 54.9495C16.9779 55.0507 17.079 55.0507 17.18 55.0507Z" fill="#F44000" fill-opacity="0.4"/>
<path d="M15.9673 54.4436C18.4938 47.0562 12.2281 43.4131 10.6111 42.6035C11.9249 44.931 15.0578 50.5981 15.9673 54.4436Z" fill="#F44000" fill-opacity="0.4"/>
<path d="M10.2072 42.5029C7.47859 49.9915 14.5529 54.0394 15.7656 54.5454C14.856 50.6999 11.521 44.6281 10.2072 42.5029Z" fill="#F44000" fill-opacity="0.4"/>
<path d="M15.7651 54.5455C15.8663 55.0515 15.9675 55.5575 15.9675 55.9623H16.2711C16.2711 55.4563 16.1699 54.9503 16.0687 54.4443C16.0687 54.5455 15.9675 54.6467 15.9675 54.6467C15.8663 54.6467 15.8663 54.6467 15.7651 54.5455Z" fill="#F44000" fill-opacity="0.4"/>
<path d="M15.6643 65.4748C18.1908 56.9743 26.4778 57.7839 28.4991 58.0875C25.6693 59.403 18.9993 62.5401 15.6643 65.4748Z" fill="#F44000" fill-opacity="0.4"/>
<path d="M28.9031 58.1885C26.4776 66.9926 17.18 65.9806 15.7651 65.6771C19.1002 62.7423 26.2755 59.4028 28.9031 58.1885Z" fill="#F44000" fill-opacity="0.4"/>
<path d="M15.7652 65.7792C15.361 66.184 14.9567 66.5888 14.6535 66.9935L14.4514 66.7912C14.7546 66.3864 15.1588 65.8804 15.6641 65.4756C15.6641 65.5768 15.5631 65.678 15.5631 65.7792C15.5631 65.678 15.6641 65.7792 15.7652 65.7792Z" fill="#F44000" fill-opacity="0.4"/>
<path d="M14.3504 65.0694C16.5737 56.4677 9.09521 52.9258 7.17505 52.1162C8.99415 54.7473 13.0366 60.9203 14.3504 65.0694Z" fill="#F44000" fill-opacity="0.4"/>
<path d="M6.77143 52.0156C4.34597 60.8198 12.8351 64.6653 14.1489 65.2725C12.8351 61.0222 8.38841 54.4444 6.77143 52.0156Z" fill="#F44000" fill-opacity="0.4"/>
<path d="M14.1482 65.2721C14.3506 65.8793 14.4518 66.3852 14.4518 66.8912H14.7554C14.7554 66.3852 14.553 65.7781 14.3506 65.1709C14.3506 65.2721 14.3506 65.3733 14.2494 65.4745C14.3506 65.3733 14.2494 65.3733 14.1482 65.2721Z" fill="#F44000" fill-opacity="0.4"/>
<path d="M15.3616 79.1373C15.9679 68.9164 25.4677 67.4996 27.7921 67.3984C24.9624 69.5236 18.2923 74.9882 15.3616 79.1373Z" fill="#F44000" fill-opacity="0.4"/>
<path d="M28.2972 67.3984C27.8929 78.0241 17.1805 79.3397 15.5635 79.4409C18.4942 75.1906 25.6696 69.4224 28.2972 67.3984Z" fill="#F44000" fill-opacity="0.4"/>
<path d="M15.5633 79.4403C15.1591 80.0475 14.8559 80.5535 14.6538 81.0595L14.3506 80.9583C14.5527 80.3511 14.957 79.7439 15.3612 79.1367C15.3612 79.2379 15.3612 79.3391 15.3612 79.4403C15.3612 79.4403 15.3612 79.4403 15.5633 79.4403Z" fill="#F44000" fill-opacity="0.4"/>
<path d="M13.7438 79.1369C13.946 68.916 4.44623 66.8921 2.12183 66.4873C4.85047 68.916 11.1163 74.6843 13.7438 79.1369Z" fill="#F44000" fill-opacity="0.4"/>
<path d="M1.61703 66.4873C1.31384 77.113 11.8242 79.137 13.5422 79.4406C10.9146 74.8867 4.14355 68.7136 1.61703 66.4873Z" fill="#F44000" fill-opacity="0.4"/>
<path d="M13.5415 79.3397C13.8447 79.9469 14.1479 80.5541 14.35 81.0601L14.6532 80.9589C14.4511 80.3517 14.1479 79.7445 13.7436 79.0361C13.7436 79.1373 13.7436 79.2385 13.7436 79.3397C13.7436 79.4409 13.6426 79.4409 13.5415 79.3397Z" fill="#F44000" fill-opacity="0.4"/>
<path d="M17.8877 94.6192C16.776 82.7791 27.4885 79.5408 30.2171 78.9336C27.2864 81.9695 20.5153 89.2557 17.8877 94.6192Z" fill="#F44000" fill-opacity="0.4"/>
<path d="M30.7225 78.9336C32.0363 91.1784 20.01 94.5179 18.0898 94.9227C20.8185 89.4581 28.0949 81.6659 30.7225 78.9336Z" fill="#F44000" fill-opacity="0.4"/>
<path d="M18.1908 94.9227C17.8876 95.6311 17.5844 96.3395 17.3823 96.9467L16.978 96.8455C17.1801 96.1371 17.4833 95.4287 17.8876 94.6191C17.8876 94.7203 17.8876 94.8215 17.8876 95.0239C17.8876 95.0239 17.9886 94.9227 18.1908 94.9227Z" fill="#F44000" fill-opacity="0.4"/>
<path d="M16.069 94.8209C14.5531 82.9808 3.33534 82.2725 0.606689 82.2725C4.14383 84.6 12.3298 90.1658 16.069 94.8209Z" fill="#F44000" fill-opacity="0.4"/>
<path d="M0 82.373C1.41485 94.6179 13.9464 95.1239 15.8666 95.1239C12.1273 90.4688 3.23395 84.4982 0 82.373Z" fill="#F44000" fill-opacity="0.4"/>
<path d="M15.8667 95.2261C16.372 95.8333 16.7762 96.4405 17.0794 97.0476L17.3826 96.8452C17.0794 96.238 16.5741 95.5297 15.9678 94.8213C15.9678 94.9225 15.9678 95.0237 16.0688 95.2261C16.1699 95.2261 16.0688 95.2261 15.8667 95.2261Z" fill="#F44000" fill-opacity="0.4"/>
<path d="M22.9413 108.181C18.9999 95.4298 29.9145 89.4591 32.7442 88.1436C30.2177 92.1914 24.5583 101.805 22.9413 108.181Z" fill="#F44000" fill-opacity="0.4"/>
<path d="M33.3505 87.9414C37.6961 100.996 25.2656 107.574 23.2444 108.484C24.9624 101.907 31.0261 91.6857 33.3505 87.9414Z" fill="#F44000" fill-opacity="0.4"/>
<path d="M23.2443 108.484C23.0422 109.395 22.84 110.205 22.84 110.913H22.4358C22.4358 110.103 22.6379 109.193 22.84 108.181C22.84 108.282 22.9411 108.484 22.9411 108.585C23.0422 108.585 23.1432 108.585 23.2443 108.484Z" fill="#F44000" fill-opacity="0.4"/>
<path d="M21.0208 108.889C16.5742 96.3403 4.14365 98.1618 1.11182 98.769C5.45744 100.489 15.7657 104.74 21.0208 108.889Z" fill="#F44000" fill-opacity="0.4"/>
<path d="M0.505127 98.9717C4.95181 112.026 18.7972 109.699 20.9195 109.294C15.5632 105.044 4.54757 100.591 0.505127 98.9717Z" fill="#F44000" fill-opacity="0.4"/>
<path d="M20.8186 109.294C21.526 109.901 22.1324 110.407 22.6377 111.014L22.9409 110.711C22.4356 110.104 21.7282 109.496 20.9197 108.788C20.9197 108.889 21.0207 109.092 21.0207 109.193C21.1218 109.294 21.0207 109.294 20.8186 109.294Z" fill="#F44000" fill-opacity="0.4"/>
<path d="M31.1266 121.133C25.3661 106.965 37.2913 99.0719 40.3231 97.3516C37.9987 102.108 32.4404 113.644 31.1266 121.133Z" fill="#F44000" fill-opacity="0.4"/>
<path d="M41.1318 97.0479C47.2965 111.519 33.7544 120.222 31.6321 121.436C32.8448 113.847 38.8074 101.501 41.1318 97.0479Z" fill="#F44000" fill-opacity="0.4"/>
<path d="M31.6329 121.436C31.4305 122.448 31.4305 123.359 31.4305 124.27H30.9246C30.9246 123.359 31.0258 122.246 31.127 121.133C31.2282 121.335 31.2282 121.436 31.3294 121.538C31.3294 121.639 31.4305 121.538 31.6329 121.436Z" fill="#F44000" fill-opacity="0.4"/>
<path d="M29.0042 122.145C22.6374 108.281 8.69097 111.519 5.35596 112.632C10.5101 114.049 22.6374 117.894 29.0042 122.145Z" fill="#F44000" fill-opacity="0.4"/>
<path d="M4.64844 112.834C10.9142 127.305 26.4776 123.358 28.9031 122.65C22.5362 118.299 9.3983 114.251 4.64844 112.834Z" fill="#F44000" fill-opacity="0.4"/>
<path d="M28.9031 122.651C29.8126 123.258 30.5201 123.866 31.1264 124.371L31.5307 123.967C30.9243 123.258 30.0147 122.651 29.1052 122.044C29.2063 122.145 29.2063 122.348 29.3073 122.449C29.2063 122.55 29.1052 122.55 28.9031 122.651Z" fill="#F44000" fill-opacity="0.4"/>
<path d="M44.6689 133.885C35.7755 120.729 46.2859 110.104 49.0145 107.675C47.5996 113.139 44.3657 125.991 44.6689 133.885Z" fill="#F44000" fill-opacity="0.4"/>
<path d="M49.7217 107.27C59.1204 120.729 47.1952 132.366 45.275 134.087C44.8708 126.092 48.3068 112.329 49.7217 107.27Z" fill="#F44000" fill-opacity="0.4"/>
<path d="M45.2748 134.086C45.3759 135.199 45.477 136.11 45.6791 137.021L45.1738 137.122C44.9717 136.211 44.8706 135.098 44.7695 133.884C44.8706 133.985 44.9717 134.187 45.0727 134.289C44.9717 134.39 45.0727 134.289 45.2748 134.086Z" fill="#F44000" fill-opacity="0.4"/>
<path d="M42.749 135.301C33.3504 122.55 19.8082 128.824 16.6753 130.646C22.2336 131.05 35.3716 132.366 42.749 135.301Z" fill="#F44000" fill-opacity="0.4"/>
<path d="M15.9678 131.151C25.4675 144.509 40.4245 137.122 42.7489 135.908C35.2704 132.872 21.1219 131.556 15.9678 131.151Z" fill="#F44000" fill-opacity="0.4"/>
<path d="M42.749 135.908C43.7596 136.313 44.6692 136.718 45.3766 137.224L45.6798 136.819C44.8713 136.313 43.8607 135.807 42.749 135.402C42.8501 135.504 42.9511 135.706 43.0522 135.807C43.0522 135.706 42.9511 135.807 42.749 135.908Z" fill="#F44000" fill-opacity="0.4"/>
<path d="M59.9292 142.992C48.2061 129.837 58.1101 116.681 60.7377 113.544C59.9292 119.717 58.4133 134.391 59.9292 142.992Z" fill="#F44000" fill-opacity="0.4"/>
<path d="M61.4452 113.038C73.7746 126.396 62.4558 140.969 60.5356 143.195C58.9187 134.391 60.6367 118.705 61.4452 113.038Z" fill="#F44000" fill-opacity="0.4"/>
<path d="M60.5361 143.195C60.7382 144.409 61.0414 145.421 61.3445 146.332L60.8392 146.534C60.435 145.522 60.1318 144.409 59.9297 143.094C60.0307 143.195 60.1318 143.397 60.3339 143.499C60.3339 143.499 60.435 143.397 60.5361 143.195Z" fill="#F44000" fill-opacity="0.4"/>
<path d="M58.0093 144.915C45.781 132.265 31.8345 141.272 28.6006 143.7C34.7653 143.296 49.5202 142.688 58.0093 144.915Z" fill="#F44000" fill-opacity="0.4"/>
<path d="M27.9941 144.307C40.4246 157.564 55.7859 147.242 58.1103 145.522C49.4191 143.295 33.6536 143.903 27.9941 144.307Z" fill="#F44000" fill-opacity="0.4"/>
<path d="M58.1106 145.522C59.2222 145.825 60.3339 146.129 61.1424 146.534L61.3445 146.028C60.435 145.522 59.2222 145.218 57.9084 144.813C58.0095 144.915 58.2116 145.117 58.3127 145.218C58.4138 145.319 58.3127 145.319 58.1106 145.522Z" fill="#F44000" fill-opacity="0.4"/>
</svg>
