<svg width="18" height="18" viewBox="0 0 18 18" fill="none" xmlns="http://www.w3.org/2000/svg">
<path d="M11.25 1.5V2.55C11.25 2.97004 11.25 3.18006 11.1682 3.34049C11.0963 3.48161 10.9817 3.59635 10.8405 3.66826C10.6801 3.75 10.4701 3.75 10.05 3.75H7.95C7.52993 3.75 7.31994 3.75 7.15951 3.66826C7.01839 3.59635 6.90365 3.48161 6.83174 3.34049C6.75 3.18006 6.75 2.97004 6.75 2.55V1.5M6.15 16.5H11.85C12.6901 16.5 13.1102 16.5 13.431 16.3365C13.7132 16.1927 13.9427 15.9632 14.0865 15.681C14.25 15.3602 14.25 14.9401 14.25 14.1V3.9C14.25 3.05992 14.25 2.63988 14.0865 2.31902C13.9427 2.03677 13.7132 1.8073 13.431 1.66349C13.1102 1.5 12.6901 1.5 11.85 1.5H6.15C5.30992 1.5 4.88988 1.5 4.56902 1.66349C4.28677 1.8073 4.0573 2.03677 3.91349 2.31902C3.75 2.63988 3.75 3.05992 3.75 3.9V14.1C3.75 14.9401 3.75 15.3602 3.91349 15.681C4.0573 15.9632 4.28677 16.1927 4.56902 16.3365C4.88988 16.5 5.30992 16.5 6.15 16.5Z" stroke="#141414" stroke-width="1.5" stroke-linecap="round" stroke-linejoin="round"/>
</svg>
