<svg width="48" height="32" viewBox="0 0 48 32" fill="none" xmlns="http://www.w3.org/2000/svg">
<g clip-path="url(#clip0_587_15935)">
<mask id="mask0_587_15935" style="mask-type:luminance" maskUnits="userSpaceOnUse" x="0" y="0" width="48" height="32">
<path d="M48 0H0V32H48V0Z" fill="white"/>
</mask>
<g mask="url(#mask0_587_15935)">
<path d="M10.8661 31.93V29.806C10.881 29.6258 10.8564 29.4445 10.7941 29.2747C10.7318 29.1049 10.6333 28.9506 10.5054 28.8228C10.3775 28.6949 10.2233 28.5964 10.0535 28.5341C9.88372 28.4718 9.7024 28.4471 9.52215 28.462C9.28778 28.4528 9.05488 28.503 8.84509 28.6079C8.6353 28.7128 8.45542 28.869 8.32215 29.062C8.20564 28.8683 8.03846 28.71 7.83862 28.6042C7.63878 28.4985 7.41388 28.4493 7.18815 28.462C6.99467 28.4536 6.80226 28.4947 6.62904 28.5813C6.45583 28.6679 6.30754 28.7972 6.19815 28.957V28.532H5.45215V31.932H6.19415V30.056C6.19415 29.456 6.51215 29.169 7.00615 29.169C7.50015 29.169 7.74815 29.487 7.74815 30.056V31.932H8.49015V30.056C8.47497 29.9424 8.48491 29.8267 8.51926 29.7173C8.55361 29.6079 8.61154 29.5074 8.68897 29.4229C8.76639 29.3383 8.86143 29.2717 8.96738 29.2278C9.07332 29.184 9.1876 29.1639 9.30215 29.169C9.79715 29.169 10.0441 29.487 10.0441 30.056V31.932L10.8661 31.93ZM21.8761 28.53H20.6762V27.503H19.9341V28.53H19.2621V29.202H19.9341V30.761C19.9341 31.54 20.2521 31.998 21.1011 31.998C21.4232 31.991 21.7389 31.9062 22.0212 31.751L21.8071 31.112C21.6153 31.2305 21.3936 31.2919 21.1681 31.289C20.8131 31.289 20.6732 31.075 20.6732 30.724V29.202H21.8731V28.53H21.8761ZM28.1762 28.456C27.9977 28.4524 27.8215 28.4963 27.6656 28.5833C27.5097 28.6703 27.3798 28.7972 27.2892 28.951V28.526H26.5522V31.926H27.2941V30.013C27.2941 29.448 27.5411 29.126 28.0031 29.126C28.1591 29.1334 28.314 29.1569 28.4652 29.196L28.6791 28.487C28.5136 28.4631 28.3463 28.4534 28.1791 28.458L28.1762 28.456ZM18.6521 28.813C18.2376 28.5595 17.7566 28.4359 17.2711 28.458C16.4221 28.458 15.8572 28.883 15.8572 29.558C15.8572 30.123 16.2822 30.445 17.0242 30.548L17.3792 30.585C17.7672 30.655 17.9791 30.762 17.9791 30.94C17.9791 31.187 17.6941 31.365 17.2001 31.365C16.7945 31.367 16.3982 31.243 16.0662 31.01L15.7111 31.575C16.1393 31.864 16.6468 32.0125 17.1632 32C18.1532 32 18.7221 31.538 18.7221 30.9C18.7221 30.3 18.2601 29.98 17.5551 29.873L17.2001 29.836C16.8821 29.799 16.6352 29.729 16.6352 29.518C16.6352 29.271 16.8822 29.13 17.2742 29.13C17.6453 29.1465 18.0084 29.2437 18.3382 29.415L18.6511 28.815L18.6521 28.813ZM38.4002 28.458C38.2217 28.4544 38.0455 28.4983 37.8896 28.5853C37.7337 28.6723 37.6038 28.7992 37.5131 28.953V28.528H36.7712V31.928H37.5131V30.015C37.5131 29.45 37.7601 29.128 38.2221 29.128C38.3781 29.1354 38.5329 29.1589 38.6841 29.198L38.8982 28.498C38.7334 28.4671 38.5657 28.4547 38.3982 28.461L38.4002 28.458ZM28.9151 30.231C28.905 30.4692 28.9451 30.7068 29.0327 30.9285C29.1204 31.1502 29.2537 31.3511 29.424 31.5179C29.5943 31.6847 29.7978 31.8138 30.0213 31.8969C30.2448 31.98 30.4832 32.0151 30.7211 32C31.1551 32.0216 31.582 31.8836 31.9211 31.612L31.5662 31.012C31.3154 31.216 31.0024 31.3282 30.6791 31.33C30.5367 31.3346 30.395 31.3086 30.2634 31.254C30.1318 31.1993 30.0134 31.1171 29.9161 31.0129C29.8189 30.9088 29.745 30.7851 29.6995 30.65C29.654 30.515 29.6378 30.3718 29.6521 30.23C29.6442 30.0896 29.6647 29.949 29.7126 29.8168C29.7604 29.6845 29.8346 29.5633 29.9306 29.4605C30.0265 29.3577 30.1424 29.2754 30.271 29.2186C30.3997 29.1618 30.5385 29.1317 30.6791 29.13C31.002 29.1344 31.3141 29.2463 31.5662 29.448L31.9211 28.848C31.5829 28.5747 31.1554 28.4365 30.7211 28.46C30.4832 28.4449 30.2448 28.48 30.0213 28.5631C29.7978 28.6462 29.5943 28.7753 29.424 28.9421C29.2537 29.109 29.1204 29.3097 29.0327 29.5314C28.9451 29.7531 28.905 29.9908 28.9151 30.229V30.231ZM35.7811 30.231V28.531H35.0392V28.956C34.914 28.7947 34.7522 28.6657 34.5671 28.5796C34.382 28.4935 34.1791 28.4528 33.9751 28.461C33.5205 28.4826 33.0917 28.6784 32.7776 29.0078C32.4635 29.3372 32.2883 29.7748 32.2883 30.23C32.2883 30.6851 32.4635 31.1228 32.7776 31.4521C33.0917 31.7815 33.5205 31.9774 33.9751 31.999C34.18 32.0145 34.3855 31.9771 34.5718 31.8904C34.7581 31.8038 34.919 31.6707 35.0392 31.504V31.929H35.7811V30.229V30.231ZM33.0551 30.231C33.0464 30.0908 33.0665 29.9502 33.1141 29.818C33.1618 29.6858 33.236 29.5647 33.3322 29.4623C33.4284 29.3599 33.5446 29.2783 33.6736 29.2225C33.8026 29.1667 33.9416 29.1379 34.0821 29.1379C34.2227 29.1379 34.3617 29.1667 34.4907 29.2225C34.6197 29.2783 34.7359 29.3599 34.8321 29.4623C34.9283 29.5647 35.0025 29.6858 35.0502 29.818C35.0978 29.9502 35.1179 30.0908 35.1091 30.231C35.1179 30.3713 35.0978 30.5118 35.0502 30.644C35.0025 30.7762 34.9283 30.8973 34.8321 30.9997C34.7359 31.1021 34.6197 31.1838 34.4907 31.2396C34.3617 31.2954 34.2227 31.3241 34.0821 31.3241C33.9416 31.3241 33.8026 31.2954 33.6736 31.2396C33.5446 31.1838 33.4284 31.1021 33.3322 30.9997C33.236 30.8973 33.1618 30.7762 33.1141 30.644C33.0665 30.5118 33.0464 30.3713 33.0551 30.231ZM24.1732 28.458C23.7139 28.4775 23.2803 28.6749 22.964 29.0084C22.6476 29.3419 22.4735 29.7853 22.4783 30.2449C22.4831 30.7046 22.6665 31.1443 22.9897 31.4711C23.3129 31.7979 23.7506 31.9861 24.2101 31.996C24.7101 32.0067 25.1983 31.8434 25.5912 31.534L25.2361 31.002C24.9524 31.2229 24.6056 31.3472 24.2462 31.357C24.0038 31.3775 23.7628 31.3049 23.5721 31.1541C23.3813 31.0033 23.2551 30.7855 23.2192 30.545H25.7302V30.26C25.7638 30.0363 25.7486 29.8078 25.6856 29.5905C25.6225 29.3732 25.5132 29.1721 25.3651 29.0011C25.2169 28.8301 25.0335 28.6931 24.8274 28.5997C24.6213 28.5063 24.3974 28.4587 24.1711 28.46L24.1732 28.458ZM24.1732 29.097C24.2823 29.0941 24.391 29.1128 24.4929 29.1521C24.5948 29.1914 24.688 29.2506 24.7669 29.326C24.8458 29.4015 24.909 29.4919 24.9528 29.592C24.9967 29.692 25.0202 29.7998 25.0222 29.909H23.2582C23.2803 29.6824 23.3876 29.4726 23.5583 29.3219C23.729 29.1712 23.9505 29.0908 24.1782 29.097H24.1732ZM42.6141 30.231V27.188H41.8722V28.957C41.747 28.7957 41.5852 28.6667 41.4001 28.5806C41.215 28.4945 41.0121 28.4538 40.8081 28.462C40.3535 28.4836 39.9247 28.6795 39.6106 29.0089C39.2965 29.3382 39.1213 29.7759 39.1213 30.231C39.1213 30.6861 39.2965 31.1238 39.6106 31.4532C39.9247 31.7826 40.3535 31.9784 40.8081 32C41.013 32.0155 41.2185 31.9781 41.4048 31.8914C41.5911 31.8047 41.752 31.6717 41.8722 31.505V31.93H42.6141V30.23V30.231ZM39.8881 30.231C39.8794 30.0908 39.8995 29.9502 39.9471 29.818C39.9948 29.6858 40.069 29.5647 40.1652 29.4623C40.2614 29.3599 40.3776 29.2783 40.5066 29.2225C40.6356 29.1667 40.7746 29.1379 40.9151 29.1379C41.0557 29.1379 41.1947 29.1667 41.3237 29.2225C41.4527 29.2783 41.5689 29.3599 41.6651 29.4623C41.7613 29.5647 41.8355 29.6858 41.8832 29.818C41.9308 29.9502 41.9509 30.0908 41.9422 30.231C41.9509 30.3713 41.9308 30.5118 41.8832 30.644C41.8355 30.7762 41.7613 30.8973 41.6651 30.9997C41.5689 31.1021 41.4527 31.1838 41.3237 31.2396C41.1947 31.2954 41.0557 31.3241 40.9151 31.3241C40.7746 31.3241 40.6356 31.2954 40.5066 31.2396C40.3776 31.1838 40.2614 31.1021 40.1652 30.9997C40.069 30.8973 39.9948 30.7762 39.9471 30.644C39.8995 30.5118 39.8794 30.3713 39.8881 30.231ZM15.0392 30.231V28.531H14.2971V28.956C14.172 28.7947 14.0102 28.6657 13.8251 28.5796C13.64 28.4935 13.4371 28.4528 13.2332 28.461C12.7785 28.4826 12.3497 28.6784 12.0356 29.0078C11.7215 29.3372 11.5463 29.7748 11.5463 30.23C11.5463 30.6851 11.7215 31.1228 12.0356 31.4521C12.3497 31.7815 12.7785 31.9774 13.2332 31.999C13.438 32.0145 13.6435 31.9771 13.8298 31.8904C14.0161 31.8038 14.177 31.6707 14.2971 31.504V31.929H15.0392V30.229V30.231ZM12.2801 30.231C12.2714 30.0908 12.2915 29.9502 12.3391 29.818C12.3868 29.6858 12.461 29.5647 12.5572 29.4623C12.6534 29.3599 12.7696 29.2783 12.8986 29.2225C13.0276 29.1667 13.1666 29.1379 13.3071 29.1379C13.4477 29.1379 13.5867 29.1667 13.7157 29.2225C13.8447 29.2783 13.9609 29.3599 14.0571 29.4623C14.1533 29.5647 14.2275 29.6858 14.2752 29.818C14.3228 29.9502 14.3429 30.0908 14.3341 30.231C14.3429 30.3713 14.3228 30.5118 14.2752 30.644C14.2275 30.7762 14.1533 30.8973 14.0571 30.9997C13.9609 31.1021 13.8447 31.1838 13.7157 31.2396C13.5867 31.2954 13.4477 31.3241 13.3071 31.3241C13.1666 31.3241 13.0276 31.2954 12.8986 31.2396C12.7696 31.1838 12.6534 31.1021 12.5572 30.9997C12.461 30.8973 12.3868 30.7762 12.3391 30.644C12.2915 30.5118 12.2714 30.3713 12.2801 30.231Z" fill="black"/>
<path d="M29.5592 2.72607H18.4082V22.7591H29.5592V2.72607Z" fill="#FF5A00"/>
<path d="M19.1511 12.7423C19.1515 10.8154 19.5877 8.91348 20.4271 7.17898C21.2665 5.44448 22.4872 3.92227 23.9981 2.72628C22.4009 1.47292 20.5272 0.619509 18.5332 0.237178C16.5393 -0.145153 14.4828 -0.0453258 12.5353 0.528339C10.5878 1.102 8.80555 2.13288 7.33724 3.53505C5.86893 4.93722 4.75705 6.67005 4.09429 8.5891C3.43153 10.5082 3.23709 12.5578 3.52718 14.5673C3.81726 16.5767 4.58346 18.4877 5.76192 20.141C6.94038 21.7942 8.49695 23.1418 10.3019 24.0715C12.1068 25.0011 14.1078 25.4859 16.1381 25.4853C18.9902 25.4869 21.7594 24.5264 23.9981 22.7593C22.4837 21.5662 21.2605 20.0445 20.4208 18.3091C19.581 16.5737 19.1469 14.6701 19.1511 12.7423Z" fill="#EB001B"/>
<path d="M44.6 12.7422C44.6019 15.132 43.9311 17.4741 42.6642 19.5006C41.3974 21.527 39.5857 23.1559 37.4364 24.2009C35.2872 25.2459 32.8871 25.6648 30.511 25.4096C28.1348 25.1545 25.8784 24.2356 24 22.7582C25.5119 21.5628 26.7335 20.0408 27.5734 18.3061C28.4133 16.5713 28.8496 14.669 28.8496 12.7417C28.8496 10.8144 28.4133 8.91203 27.5734 7.17732C26.7335 5.44261 25.5119 3.92053 24 2.72519C25.8784 1.24773 28.1348 0.328871 30.511 0.0737357C32.8871 -0.1814 35.2872 0.237494 37.4364 1.28249C39.5857 2.32749 41.3974 3.95638 42.6642 5.98281C43.9311 8.00924 44.6019 10.3524 44.6 12.7422Z" fill="#F79E1B"/>
</g>
</g>
<defs>
<clipPath id="clip0_587_15935">
<rect width="48" height="32" fill="white"/>
</clipPath>
</defs>
</svg>
