<svg width="36" height="36" viewBox="0 0 36 36" fill="none" xmlns="http://www.w3.org/2000/svg">
<path d="M17.9934 0C8.06942 0 0 8.07452 0 18.0033C0 20.9425 0.703692 23.7107 1.96639 26.1567C2.34783 26.9194 2.79503 27.6427 3.28827 28.3331L4.64962 26.2356L14.0015 11.829L18.8484 19.2855L20.2163 17.1814L15.2379 9.50795L14.0015 7.61424L3.44611 23.8751C2.70954 22.0668 2.30179 20.0877 2.30179 18.0033C2.30179 9.35013 9.34527 2.30795 17.9934 2.30795C26.6482 2.30795 33.6916 9.35013 33.6916 18.0033C33.6916 26.6564 26.6482 33.692 17.9934 33.692C16.5992 33.692 15.2444 33.5079 13.9554 33.1529L24.2017 17.3721L29.9627 26.2488C30.456 25.5321 30.8769 24.7825 31.2386 23.9868L24.2017 13.1638L11.726 32.377L10.4501 34.3364C11.1538 34.6652 11.8904 34.9479 12.6467 35.1781C14.3369 35.7173 16.1323 36 17.9934 36C27.924 36 36 27.9255 36 18.0099C36 8.07452 27.924 0 17.9934 0Z" fill="#F44000"/>
</svg>
