<svg width="163" height="36" viewBox="0 0 163 36" fill="none" xmlns="http://www.w3.org/2000/svg">
<path d="M17.9934 0C8.06942 0 0 8.07452 0 18.0033C0 20.9425 0.703692 23.7107 1.96639 26.1567C2.34783 26.9194 2.79503 27.6427 3.28827 28.3331L4.64962 26.2356L14.0015 11.829L18.8484 19.2855L20.2163 17.1814L15.2379 9.50795L14.0015 7.61424L3.44611 23.8751C2.70954 22.0668 2.30179 20.0877 2.30179 18.0033C2.30179 9.35013 9.34527 2.30795 17.9934 2.30795C26.6482 2.30795 33.6916 9.35013 33.6916 18.0033C33.6916 26.6564 26.6482 33.692 17.9934 33.692C16.5992 33.692 15.2444 33.5079 13.9554 33.1529L24.2017 17.3721L29.9627 26.2488C30.456 25.5321 30.8769 24.7825 31.2386 23.9868L24.2017 13.1638L11.726 32.377L10.4501 34.3364C11.1538 34.6652 11.8904 34.9479 12.6467 35.1781C14.3369 35.7173 16.1323 36 17.9934 36C27.924 36 36 27.9255 36 18.0099C36 8.07452 27.924 0 17.9934 0Z" fill="#F44000"/>
<path d="M57.78 11.4C58.46 11.4 59 11.96 59 12.62V23.78C59 24.46 58.46 25 57.78 25C57.1 25 56.56 24.46 56.56 23.78V15.92L53.12 20.1C52.88 20.4 52.54 20.54 52.2 20.54C51.86 20.54 51.5 20.4 51.28 20.1L47.84 15.92V23.78C47.84 24.46 47.28 25 46.62 25C45.94 25 45.4 24.46 45.4 23.78V12.62C45.4 11.96 45.94 11.4 46.62 11.4C47.02 11.4 47.4 11.62 47.62 11.94L52.2 17.52L56.78 11.94C57 11.62 57.36 11.4 57.78 11.4ZM66.8258 25.2C63.9458 25.2 61.6258 22.9 61.6258 20.04C61.6258 17.2 63.9458 14.88 66.8258 14.88C69.7058 14.88 72.0258 17.2 72.0258 20.04C72.0258 22.9 69.7058 25.2 66.8258 25.2ZM66.8258 22.94C68.3658 22.94 69.6258 21.66 69.6258 20.04C69.6258 18.44 68.3658 17.14 66.8258 17.14C65.2658 17.14 64.0258 18.44 64.0258 20.04C64.0258 21.66 65.2658 22.94 66.8258 22.94ZM87.3988 14.88C89.9588 14.88 91.8188 16.78 91.8188 19.14V23.8C91.8188 24.46 91.2788 24.98 90.6188 25C89.9588 24.98 89.4188 24.46 89.4188 23.8V19.74C89.4188 18.28 88.2988 17.14 86.9188 17.14C85.5388 17.14 84.4188 18.28 84.4188 19.74V23.8C84.4188 24.46 83.8788 25 83.2188 25C82.5388 25 82.0188 24.46 82.0188 23.8V19.74C82.0188 18.32 80.8988 17.14 79.5188 17.14C78.1188 17.14 77.0188 18.32 77.0188 19.74V23.8C77.0188 24.48 76.4788 25 75.8188 25C75.1388 25 74.6188 24.48 74.6188 23.8V16.28C74.6188 15.62 75.1388 15.08 75.8188 15.08C76.4388 15.08 76.9588 15.58 76.9988 16.2C77.7788 15.4 78.8788 14.88 80.1188 14.88C81.5388 14.88 82.7788 15.56 83.5788 16.62C84.4588 15.56 85.8788 14.88 87.3988 14.88ZM101.039 22.8C101.759 22.62 102.439 23.16 102.439 23.88C102.439 24.4 102.099 24.84 101.619 24.98C100.239 25.38 98.8188 25.32 97.7588 24.66C96.8588 24.08 96.2788 23.14 96.2788 21.78V17.44H95.1388C94.5188 17.44 94.0188 16.94 94.0188 16.32C94.0188 15.7 94.5188 15.18 95.1388 15.18H96.2788V13.36C96.2788 12.7 96.8188 12.16 97.4788 12.16C98.1388 12.16 98.6788 12.7 98.6788 13.36V15.18H100.699C101.319 15.18 101.819 15.7 101.819 16.32C101.819 16.94 101.319 17.44 100.699 17.44H98.6788V21.52C98.6788 22.08 98.7988 22.48 99.1788 22.7C99.6188 22.98 100.299 22.98 101.039 22.8ZM113.598 15.08C114.258 15.08 114.798 15.62 114.798 16.28V23.8C114.798 24.48 114.258 25 113.598 25C112.918 25 112.398 24.48 112.398 23.8C111.538 24.68 110.398 25.2 109.158 25.2C106.538 25.2 104.458 22.9 104.458 20.06C104.458 17.2 106.538 14.88 109.158 14.88C110.398 14.88 111.538 15.42 112.398 16.3V16.28C112.398 15.62 112.918 15.08 113.598 15.08ZM109.658 22.94C111.198 22.94 112.458 21.66 112.458 20.06C112.458 18.44 111.198 17.14 109.658 17.14C108.098 17.14 106.858 18.44 106.858 20.06C106.858 21.66 108.098 22.94 109.658 22.94ZM123.247 14.88C125.847 14.88 127.947 17.2 127.947 20.06C127.947 22.9 125.847 25.2 123.247 25.2C121.987 25.2 120.847 24.68 120.007 23.8C120.007 24.48 119.467 25 118.807 25C118.127 25 117.607 24.48 117.607 23.8V12.2C117.607 11.54 118.127 11 118.807 11C119.467 11 120.007 11.54 120.007 12.2V16.3C120.847 15.42 121.987 14.88 123.247 14.88ZM122.747 22.94C124.287 22.94 125.547 21.66 125.547 20.06C125.547 18.44 124.287 17.14 122.747 17.14C121.187 17.14 119.947 18.44 119.947 20.06C119.947 21.66 121.187 22.94 122.747 22.94ZM139.496 15.08C140.156 15.08 140.696 15.62 140.696 16.28V23.8C140.696 24.48 140.156 25 139.496 25C138.816 25 138.296 24.48 138.296 23.8C137.436 24.68 136.296 25.2 135.056 25.2C132.436 25.2 130.356 22.9 130.356 20.06C130.356 17.2 132.436 14.88 135.056 14.88C136.296 14.88 137.436 15.42 138.296 16.3V16.28C138.296 15.62 138.816 15.08 139.496 15.08ZM135.556 22.94C137.096 22.94 138.356 21.66 138.356 20.06C138.356 18.44 137.096 17.14 135.556 17.14C133.996 17.14 132.756 18.44 132.756 20.06C132.756 21.66 133.996 22.94 135.556 22.94ZM148.305 14.88C148.985 14.88 149.525 15.44 149.525 16.12C149.525 16.74 149.085 17.24 148.485 17.34C147.125 17.54 145.905 18.56 145.905 20.54V23.8C145.905 24.48 145.365 25 144.705 25C144.025 25 143.505 24.48 143.505 23.8V16.28C143.505 15.62 144.025 15.08 144.705 15.08C145.285 15.08 145.765 15.5 145.865 16.06C146.585 15.36 147.465 14.88 148.305 14.88ZM156.528 14.88C159.308 14.88 161.528 17.2 161.528 20.04C161.528 20.1 161.528 20.16 161.528 20.22C161.528 20.88 160.988 21.4 160.348 21.4H154.148C154.548 22.46 155.508 22.94 156.908 22.94C157.628 22.94 158.468 22.8 159.288 22.52C159.408 22.48 159.528 22.46 159.648 22.46C160.268 22.46 160.768 22.96 160.768 23.58C160.768 24.08 160.468 24.5 160.008 24.66C158.968 25.02 157.908 25.2 156.928 25.2C153.628 25.2 151.548 23.34 151.528 20.04C151.528 17.2 153.768 14.88 156.528 14.88ZM156.528 17.14C155.368 17.14 154.368 18 154.048 19.2H159.028C158.708 18 157.708 17.14 156.528 17.14Z" fill="white"/>
</svg>
