<svg width="116" height="151" viewBox="0 0 116 151" fill="none" xmlns="http://www.w3.org/2000/svg">
    <path d="M58.7579 1.12015L60.6781 5.7752L65.7312 6.18001C66.4386 6.28121 66.7418 7.19197 66.2365 7.59676L62.3961 10.8351L63.6089 15.6925C63.811 16.4009 63.0025 17.0081 62.3961 16.6033L58.1516 13.9722L53.907 16.6033C53.3006 17.0081 52.4922 16.4009 52.6943 15.6925L53.907 10.8351L50.0667 7.59676C49.4603 7.09078 49.7635 6.18001 50.572 6.18001L55.6251 5.7752L57.5452 1.12015C57.5452 0.411772 58.4548 0.411772 58.7579 1.12015Z"
          fill="#F44000"/>
    <path d="M59.061 129.033L61.6886 135.611L68.7629 136.117C69.7735 136.218 70.1778 137.433 69.3693 138.141L64.013 142.695L65.7311 149.576C65.9332 150.588 64.9226 151.398 64.013 150.791L58.0504 147.046L52.0878 150.791C51.1783 151.297 50.1677 150.588 50.3698 149.576L52.0878 142.695L46.7316 138.141C45.9231 137.433 46.3274 136.218 47.338 136.117L54.4123 135.611L57.0398 129.033C57.343 128.021 58.6568 128.021 59.061 129.033Z"
          fill="#F44000"/>
    <path d="M75.8374 8.50769L76.848 11.0376L79.5766 11.24C79.9809 11.24 80.183 11.8472 79.8798 12.1508L77.7575 13.9723L78.465 16.7047C78.566 17.1095 78.0607 17.5142 77.7575 17.2107L75.4331 15.7939L73.1087 17.2107C72.7045 17.413 72.3002 17.1095 72.4013 16.7047L73.1087 13.9723L70.9865 12.1508C70.6833 11.8472 70.7843 11.3412 71.2896 11.24L74.0183 11.0376L75.0289 8.50769C75.13 8.1029 75.7363 8.1029 75.8374 8.50769Z"
          fill="#F44000"/>
    <path d="M111.815 57.993L112.826 60.523L115.555 60.7254C115.959 60.7254 116.161 61.3326 115.858 61.6361L113.736 63.4577L114.443 66.19C114.544 66.5948 114.039 66.9996 113.736 66.696L111.411 65.2793L109.087 66.696C108.683 66.8984 108.278 66.5948 108.379 66.19L109.087 63.4577L106.964 61.6361C106.661 61.3326 106.762 60.8266 107.268 60.7254L109.996 60.523L111.007 57.993C111.007 57.5883 111.613 57.5883 111.815 57.993Z"
          fill="#F44000"/>
    <path d="M4.185 57.993L3.17439 60.523L0.445739 60.7254C0.0414946 60.7254 -0.160623 61.3326 0.14256 61.6361L2.26484 63.4577L1.55742 66.19C1.45636 66.5948 1.96166 66.9996 2.26484 66.696L4.58925 65.2793L6.91365 66.696C7.31789 66.8984 7.72214 66.5948 7.62108 66.19L6.91365 63.4577L9.03592 61.6361C9.33911 61.3326 9.23805 60.8266 8.73275 60.7254L6.00409 60.523L4.99348 57.993C4.99348 57.5883 4.38712 57.5883 4.185 57.993Z"
          fill="#F44000"/>
    <path d="M41.0725 8.30554L40.0618 10.8355L37.3332 11.0379C36.9289 11.0379 36.7268 11.6451 37.03 11.9486L39.1523 13.7702L38.4449 16.5025C38.3438 16.9073 38.8491 17.3121 39.1523 17.0085L41.4767 15.5918L43.8011 17.0085C44.2053 17.2109 44.6096 16.9073 44.5085 16.5025L43.8011 13.7702L45.9234 11.9486C46.2266 11.6451 46.1255 11.1391 45.6202 11.0379L42.8915 10.8355L41.8809 8.30554C41.8809 7.90076 41.2746 7.90076 41.0725 8.30554Z"
          fill="#F44000"/>
</svg>