<svg width="48" height="32" viewBox="0 0 48 32" fill="none" xmlns="http://www.w3.org/2000/svg">
<g clip-path="url(#clip0_587_15920)">
<mask id="mask0_587_15920" style="mask-type:luminance" maskUnits="userSpaceOnUse" x="0" y="0" width="48" height="32">
<path d="M48 0H0V32H48V0Z" fill="white"/>
</mask>
<g mask="url(#mask0_587_15920)">
<path d="M20.804 24.31H16.916L19.348 9.27197H23.236L20.804 24.31Z" fill="#00579F"/>
<path d="M34.8964 9.64011C33.7837 9.21161 32.6007 8.99456 31.4084 9.0001C27.5684 9.0001 24.8644 11.0481 24.8484 13.9751C24.8164 16.1351 26.7844 17.3351 28.2564 18.0551C29.7564 18.7911 30.2724 19.2711 30.2724 19.9271C30.2574 20.9341 29.0564 21.3991 27.9374 21.3991C26.6743 21.4342 25.4219 21.1596 24.2894 20.5991L23.7774 20.3591L23.2334 23.7351C24.6162 24.2712 26.0874 24.5426 27.5704 24.5351C31.6504 24.5351 34.3064 22.5191 34.3384 19.3991C34.3544 17.6871 33.3144 16.3751 31.0744 15.2991C29.7144 14.6111 28.8814 14.1471 28.8814 13.4431C28.8974 12.8031 29.5814 12.1431 31.1214 12.1431C32.1192 12.1135 33.1107 12.3105 34.0214 12.7191L34.3734 12.8791L34.9024 9.63211L34.8964 9.64011Z" fill="#00579F"/>
<path d="M40.0629 18.982C40.3829 18.118 41.6149 14.7751 41.6149 14.7751C41.5989 14.8071 41.9349 13.8951 42.1269 13.3351L42.3989 14.635C42.3989 14.635 43.1349 18.2351 43.2989 18.9861L40.0629 18.982ZM44.8629 9.27105H41.8549C41.4251 9.21937 40.9904 9.31455 40.6215 9.54111C40.2526 9.76768 39.9712 10.1123 39.8229 10.519L34.0469 24.3091H38.1269L38.9429 22.0531H43.9349C44.0469 22.5811 44.3989 24.3091 44.3989 24.3091H47.9989L44.8619 9.27105H44.8629Z" fill="#00579F"/>
<path d="M13.6645 9.27197L9.85646 19.526L9.44046 17.446C8.49223 14.7517 6.57607 12.5062 4.06445 11.146L7.55246 24.297H11.6645L17.7765 9.27498H13.6645V9.27197Z" fill="#00579F"/>
<path d="M6.32 9.27212H0.064003L0 9.57213C4.88 10.8201 8.112 13.8281 9.44 17.4431L8.08 10.5321C7.99676 10.1401 7.7702 9.79323 7.44467 9.55945C7.11915 9.32566 6.71809 9.22177 6.32 9.26813V9.27212Z" fill="#FAA61A"/>
</g>
</g>
<defs>
<clipPath id="clip0_587_15920">
<rect width="48" height="32" fill="white"/>
</clipPath>
</defs>
</svg>
